<svg id="svg" xmlns="http://www.w3.org/2000/svg" xmlns:xlink="http://www.w3.org/1999/xlink" width="400" height="397.17978848413634" viewBox="0, 0, 400,397.17978848413634" version="1.1"><g id="svgg"><path id="path0" d="M191.725 80.503 C 191.065 81.162,191.531 81.827,192.651 81.827 L 193.843 81.827 193.843 86.805 C 193.843 92.815,194.266 94.130,196.578 95.309 C 201.235 97.685,206.157 94.993,206.157 90.069 C 206.157 84.296,206.600 82.224,207.833 82.224 C 208.726 82.224,208.965 82.063,208.863 81.529 C 208.643 80.380,202.185 80.269,202.185 81.414 C 202.185 82.050,202.442 82.224,203.376 82.224 L 204.568 82.224 204.567 86.495 C 204.566 93.642,201.326 96.919,197.773 93.365 L 196.600 92.192 196.711 87.109 L 196.822 82.026 197.915 82.154 C 199.322 82.318,199.496 80.859,198.113 80.489 C 196.899 80.163,192.054 80.174,191.725 80.503 M221.119 82.489 C 220.535 83.073,220.916 83.757,222.046 84.151 C 223.508 84.661,223.528 85.100,222.281 89.429 C 221.754 91.256,221.122 93.510,220.875 94.438 C 220.456 96.015,220.342 96.120,219.151 96.027 C 218.250 95.958,217.875 96.100,217.875 96.510 C 217.875 97.096,223.778 99.029,224.220 98.587 C 224.728 98.079,224.348 97.385,223.436 97.156 C 222.236 96.854,222.237 96.869,223.269 92.824 C 224.571 87.726,224.436 87.671,227.762 94.638 C 231.274 101.993,231.556 102.161,232.750 97.617 C 235.203 88.282,235.330 87.974,236.695 88.085 C 237.662 88.164,237.934 88.028,237.934 87.469 C 237.934 86.496,232.038 84.667,231.523 85.481 C 231.164 86.049,232.140 86.991,233.088 86.991 C 233.719 86.991,233.658 87.385,232.300 92.056 C 231.216 95.784,231.349 95.877,228.193 89.170 L 225.481 83.405 223.492 82.815 C 221.162 82.123,221.446 82.162,221.119 82.489 M164.645 85.150 C 164.170 85.801,154.597 89.092,153.925 88.835 C 152.844 88.420,152.508 89.183,153.064 90.791 C 153.691 92.603,155.201 93.346,154.770 91.630 C 154.540 90.713,154.686 90.574,156.531 89.962 C 158.959 89.155,158.534 88.717,160.408 93.957 C 162.652 100.235,162.714 100.652,161.486 101.211 C 160.574 101.627,160.045 102.873,160.775 102.885 C 160.938 102.887,162.731 102.320,164.757 101.625 C 168.551 100.322,169.280 99.503,166.645 99.503 L 165.142 99.503 163.369 94.224 C 162.394 91.321,161.683 88.718,161.789 88.441 C 162.148 87.505,165.320 86.810,165.860 87.548 C 166.426 88.322,167.229 88.380,167.229 87.646 C 167.229 85.420,165.598 83.844,164.645 85.150 M179.643 88.496 C 176.678 89.091,176.108 89.713,177.098 91.274 C 177.797 92.376,183.546 90.641,183.258 89.414 C 182.902 87.896,182.783 87.866,179.643 88.496 M249.223 92.604 C 249.070 92.852,249.194 93.204,249.497 93.388 C 249.801 93.571,250.279 93.875,250.559 94.062 C 250.966 94.334,246.908 103.196,245.636 104.813 C 245.574 104.892,244.991 104.772,244.341 104.546 C 242.841 104.023,242.315 104.919,243.619 105.773 C 246.505 107.664,249.381 108.807,249.628 108.162 C 249.857 107.567,249.288 106.873,248.560 106.858 C 247.850 106.844,248.426 105.310,250.891 100.650 C 252.980 96.701,253.653 95.736,254.168 95.948 C 257.317 97.246,256.603 95.330,253.310 93.644 C 250.181 92.043,249.653 91.909,249.223 92.604 M139.033 97.214 C 138.116 97.385,133.524 99.986,130.967 101.781 C 129.448 102.848,130.177 104.026,131.727 103.010 C 132.260 102.661,132.746 102.444,132.807 102.528 C 132.868 102.612,133.523 103.664,134.263 104.866 C 135.003 106.068,136.377 108.248,137.318 109.711 C 139.313 112.816,139.283 112.672,138.133 113.612 C 137.443 114.176,137.346 114.452,137.709 114.821 C 138.305 115.428,144.720 111.484,146.578 109.368 C 151.497 103.766,146.557 95.809,139.033 97.214 M141.297 99.299 C 143.144 99.320,145.780 103.206,145.780 105.907 C 145.780 107.714,143.177 111.221,141.837 111.221 C 141.400 111.221,135.452 101.791,135.452 101.098 C 135.452 100.424,139.023 98.865,140.020 99.104 C 140.457 99.208,141.032 99.296,141.297 99.299 M262.959 100.105 C 262.959 100.326,263.167 100.840,263.421 101.246 C 263.793 101.843,263.527 103.353,262.040 109.075 C 260.063 116.679,260.083 117.381,262.235 116.094 C 271.172 110.748,273.578 109.461,274.657 109.448 C 276.360 109.428,276.168 108.733,273.999 107.078 C 272.188 105.695,272.115 105.675,271.698 106.455 C 271.358 107.091,271.396 107.311,271.877 107.495 C 272.780 107.842,272.415 108.181,268.815 110.337 C 263.343 113.614,263.746 113.548,264.322 111.070 C 265.819 104.630,266.249 103.636,267.426 103.894 C 269.233 104.291,268.754 103.152,266.353 101.339 C 264.248 99.750,262.959 99.281,262.959 100.105 M116.473 114.112 C 114.097 116.510,113.479 117.577,114.467 117.577 C 114.723 117.577,115.266 117.275,115.673 116.907 C 117.055 115.656,125.365 124.555,124.110 125.942 C 123.586 126.520,123.513 126.850,123.836 127.172 C 124.233 127.569,132.671 120.284,132.671 119.544 C 132.671 119.418,132.134 118.800,131.477 118.170 C 130.094 116.845,129.019 117.226,129.948 118.712 C 130.416 119.462,130.314 119.702,128.907 121.143 C 126.842 123.257,126.988 123.312,122.849 118.868 C 120.865 116.738,119.106 114.862,118.941 114.700 C 118.776 114.537,118.960 114.052,119.349 113.622 C 120.018 112.883,119.965 111.619,119.266 111.619 C 119.089 111.619,117.832 112.741,116.473 114.112 M282.971 116.566 C 282.835 116.920,283.020 117.536,283.383 117.937 C 284.008 118.628,283.817 118.870,279.622 122.689 C 275.060 126.842,274.612 127.126,274.225 126.117 C 273.964 125.437,272.493 125.298,272.493 125.954 C 272.493 126.542,279.732 134.637,280.268 134.648 C 281.114 134.666,282.606 132.695,282.117 132.206 C 281.776 131.865,281.500 131.886,281.011 132.292 C 280.439 132.767,280.152 132.594,278.649 130.865 C 276.753 128.686,276.753 128.687,279.330 126.646 L 280.881 125.418 282.049 126.537 C 283.295 127.731,283.527 128.518,282.721 128.817 C 282.343 128.957,282.367 129.150,282.820 129.622 C 283.490 130.320,286.395 128.113,286.395 126.906 C 286.395 126.213,285.376 126.113,284.971 126.767 C 284.668 127.258,282.417 124.963,282.430 124.177 C 282.438 123.673,285.350 121.152,285.923 121.152 C 287.056 121.152,289.193 124.447,288.533 125.176 C 287.473 126.348,288.852 126.579,290.340 125.479 C 291.786 124.410,291.893 123.643,290.663 123.175 C 290.169 122.987,288.444 121.338,286.829 119.510 C 283.576 115.829,283.327 115.639,282.971 116.566 M104.270 129.258 C 96.581 132.666,99.231 144.191,107.704 144.191 C 114.053 144.191,117.551 137.882,114.201 132.472 C 112.150 129.161,107.723 127.728,104.270 129.258 M110.157 132.519 C 113.732 134.997,114.527 139.708,111.623 141.209 C 107.042 143.578,100.205 138.005,102.095 133.443 C 103.183 130.816,107.059 130.372,110.157 132.519 M297.766 135.769 C 297.658 135.943,297.734 136.345,297.935 136.662 C 298.657 137.805,298.238 138.193,293.280 140.973 C 287.656 144.126,287.737 144.098,287.388 142.999 C 287.144 142.228,286.384 141.951,285.885 142.450 C 285.620 142.715,288.132 147.587,289.026 148.543 C 289.827 149.399,290.594 148.534,290.007 147.437 C 289.406 146.314,289.372 146.370,291.332 145.221 C 294.814 143.181,295.077 143.884,292.657 148.763 L 290.975 152.155 291.925 153.945 C 293.027 156.023,293.793 156.047,293.630 153.998 C 293.533 152.790,295.502 147.766,296.072 147.766 C 296.144 147.766,296.786 148.056,297.499 148.412 C 300.320 149.819,303.719 147.459,303.370 144.335 C 303.024 141.243,298.580 134.450,297.766 135.769 M196.013 136.434 C 190.881 137.552,186.345 140.475,183.795 144.309 C 182.007 146.998,177.160 143.713,177.160 139.813 C 177.160 138.161,175.798 137.438,172.691 137.440 C 168.251 137.444,166.978 137.942,164.250 140.747 C 162.939 142.095,161.175 143.550,160.329 143.981 C 159.375 144.467,157.683 146.143,155.873 148.393 C 154.268 150.389,152.304 152.518,151.510 153.124 C 147.698 156.031,147.919 162.824,151.897 165.054 C 153.530 165.969,152.324 173.248,149.943 176.845 C 149.213 177.948,148.915 179.047,148.758 181.215 C 148.570 183.810,148.375 184.359,146.879 186.495 C 145.961 187.805,144.503 189.950,143.639 191.261 C 142.774 192.572,141.349 194.712,140.471 196.017 C 137.877 199.873,138.717 202.747,142.590 203.266 L 144.289 203.494 144.088 206.300 C 143.978 207.844,144.061 209.487,144.273 209.953 C 144.527 210.510,144.517 211.317,144.243 212.307 C 143.855 213.714,143.905 213.887,145.002 214.911 C 146.444 216.259,146.465 216.861,145.138 218.866 C 143.150 221.869,144.030 226.225,147.068 228.425 C 148.746 229.641,150.216 230.008,157.449 231.020 C 162.962 231.792,163.654 232.224,163.654 234.891 C 163.654 236.155,164.188 237.706,165.654 240.704 C 168.886 247.312,169.215 248.620,169.215 254.830 L 169.215 260.232 170.308 260.106 L 171.400 259.980 171.512 255.061 C 171.649 249.060,171.254 247.475,167.980 240.896 C 164.220 233.339,164.263 231.533,168.233 230.239 C 172.840 228.737,185.162 219.812,187.771 216.087 C 188.989 214.348,190.084 215.053,190.658 217.943 C 190.867 218.998,191.678 222.632,192.459 226.018 C 194.614 235.360,194.653 234.178,192.065 238.067 C 189.033 242.624,185.127 251.704,183.112 258.884 C 182.206 262.108,181.220 265.515,180.919 266.454 C 180.313 268.348,180.580 268.709,182.394 268.452 C 183.222 268.335,183.348 268.041,183.618 265.595 C 185.000 253.081,193.310 236.930,204.799 224.429 C 215.776 212.486,219.110 209.214,223.026 206.542 C 227.549 203.455,227.555 203.456,228.771 207.054 C 230.009 210.722,229.918 211.159,227.706 212.112 C 225.084 213.242,223.911 215.060,223.703 218.319 C 223.562 220.542,223.444 220.854,222.741 220.854 C 219.389 220.854,216.723 226.053,217.701 230.681 C 217.921 231.721,218.253 234.529,218.437 236.921 C 218.804 241.664,218.529 241.133,221.999 243.793 C 223.902 245.253,225.063 244.982,227.368 242.541 C 229.936 239.821,230.559 239.523,233.684 239.523 C 235.604 239.523,236.480 239.333,237.211 238.759 L 238.183 237.994 238.641 239.708 C 238.898 240.668,239.673 241.996,240.404 242.726 C 241.546 243.869,241.708 244.289,241.708 246.114 C 241.708 253.214,254.639 253.492,256.615 246.434 C 257.346 243.823,257.274 239.641,256.459 237.345 C 255.596 234.915,255.847 233.218,257.424 230.827 C 259.506 227.671,259.590 222.935,257.602 220.859 C 256.496 219.705,256.482 219.625,256.444 214.542 C 256.388 207.123,255.418 205.987,249.390 206.282 L 245.949 206.450 245.682 203.787 C 245.419 201.170,245.441 201.082,246.983 198.697 C 251.253 192.091,250.970 179.102,246.258 165.439 C 239.964 147.184,235.454 141.568,224.115 137.862 C 217.925 135.840,202.375 135.049,196.013 136.434 M213.444 138.243 C 221.754 138.917,231.507 142.796,235.137 146.869 C 243.453 156.198,250.812 185.256,247.153 194.309 C 244.797 200.137,238.423 203.495,239.002 198.602 C 239.183 197.075,239.058 196.376,238.408 195.273 C 237.954 194.505,237.394 192.841,237.162 191.576 C 236.485 187.888,233.352 184.707,230.396 184.707 C 228.913 184.707,228.867 184.663,228.423 182.820 C 227.222 177.841,225.164 175.804,221.745 176.210 C 218.977 176.538,218.792 176.337,217.047 171.101 C 215.378 166.092,214.754 165.322,211.545 164.311 C 209.096 163.538,208.381 162.735,207.960 160.278 C 207.430 157.188,205.963 156.255,200.473 155.515 C 198.607 155.263,197.705 154.461,198.458 153.725 C 198.651 153.536,200.520 153.258,202.611 153.106 L 206.414 152.831 207.877 154.115 C 208.681 154.821,210.319 157.064,211.516 159.099 C 213.848 163.060,214.720 163.867,219.016 166.038 L 221.767 167.428 222.662 170.208 C 223.834 173.854,225.632 175.510,229.992 176.962 C 233.504 178.132,235.154 179.224,235.154 180.379 C 235.154 182.027,236.346 183.869,238.585 185.681 C 240.033 186.852,241.181 188.177,241.621 189.183 C 242.110 190.301,242.456 190.672,242.741 190.387 C 243.447 189.681,242.682 187.127,241.338 185.701 C 240.139 184.431,240.102 184.300,240.640 183.273 C 242.488 179.747,239.177 173.197,234.757 171.632 C 232.455 170.817,231.445 168.919,230.776 164.150 C 229.978 158.450,229.543 158.006,223.139 156.342 C 219.314 155.348,217.216 154.296,212.314 150.915 C 208.366 148.192,201.231 146.597,198.682 147.869 C 197.521 148.448,195.432 147.904,195.432 147.022 C 195.432 146.391,197.661 145.685,200.199 145.512 C 203.975 145.255,204.785 145.043,204.207 144.467 C 203.155 143.418,196.712 144.017,194.545 145.364 C 193.098 146.264,192.121 146.574,190.736 146.574 C 189.711 146.574,188.300 146.738,187.601 146.939 C 185.297 147.599,185.285 144.888,187.581 142.615 C 191.581 138.656,200.325 137.177,213.444 138.243 M173.907 139.662 C 174.547 139.792,175.119 140.477,175.790 141.920 C 177.324 145.214,177.036 145.920,174.547 144.973 C 173.747 144.669,172.930 144.722,171.357 145.179 L 169.242 145.794 167.464 144.437 C 166.486 143.691,165.453 142.996,165.167 142.892 C 164.552 142.669,166.972 139.923,168.222 139.426 C 168.972 139.128,171.876 139.248,173.907 139.662 M196.549 140.159 C 192.218 140.957,188.282 143.067,188.282 144.592 C 188.282 145.608,188.463 145.588,190.019 144.401 C 195.582 140.158,207.014 140.157,210.534 144.399 C 210.831 144.757,212.068 145.579,213.283 146.227 C 214.498 146.874,216.564 148.043,217.875 148.825 C 219.186 149.607,221.429 150.736,222.859 151.334 C 224.290 151.932,226.228 152.906,227.167 153.498 C 228.106 154.091,228.979 154.471,229.107 154.342 C 229.675 153.774,227.494 151.816,224.791 150.466 C 223.172 149.658,220.775 148.351,219.464 147.563 C 213.774 144.143,210.867 142.314,209.080 141.032 C 206.685 139.312,202.666 139.032,196.549 140.159 M300.907 141.979 C 302.752 145.406,298.076 147.794,295.986 144.493 L 295.168 143.201 297.218 141.908 C 299.775 140.296,300.003 140.300,300.907 141.979 M218.073 142.569 C 218.073 142.770,219.207 143.311,220.591 143.772 C 228.602 146.438,233.197 151.660,236.776 162.164 C 237.799 165.167,238.962 168.117,239.360 168.718 C 243.026 174.256,244.548 184.931,242.852 193.207 C 242.223 196.275,242.357 196.747,243.524 195.580 C 247.086 192.018,246.085 175.698,242.057 171.670 C 241.052 170.665,240.556 169.681,240.144 167.877 C 239.838 166.538,239.198 163.744,238.723 161.668 C 237.054 154.377,233.060 149.089,226.145 145.018 C 222.695 142.987,218.073 141.585,218.073 142.569 M166.243 145.839 L 167.668 147.090 165.761 148.796 C 164.569 149.862,163.599 150.428,163.177 150.305 C 162.013 149.965,159.306 150.932,157.441 152.356 C 156.261 153.257,155.219 153.722,154.389 153.719 L 153.128 153.714 154.717 152.199 C 155.591 151.366,156.965 149.873,157.770 148.882 C 161.043 144.853,163.937 143.814,166.243 145.839 M181.655 147.360 C 182.569 147.324,183.453 147.311,183.620 147.332 C 183.968 147.374,181.949 150.547,181.576 150.545 C 180.897 150.542,177.849 147.463,178.109 147.043 C 178.322 146.698,178.612 146.686,179.197 146.998 C 179.635 147.233,180.742 147.396,181.655 147.360 M177.327 149.355 C 178.692 150.665,180.119 151.738,180.498 151.738 C 180.986 151.738,181.150 151.999,181.060 152.632 C 180.864 154.013,178.680 154.069,176.935 152.738 C 173.481 150.103,171.188 150.178,167.955 153.032 C 165.247 155.423,165.527 157.070,168.267 154.865 C 170.905 152.742,172.247 152.346,174.045 153.157 C 175.943 154.012,175.969 153.859,173.541 156.186 C 170.191 159.398,169.979 159.484,167.799 158.520 C 165.569 157.534,164.906 157.500,163.743 158.314 C 162.471 159.205,162.654 159.682,164.266 159.682 C 165.039 159.682,166.373 160.040,167.229 160.477 C 169.987 161.884,170.975 161.609,173.805 158.652 C 176.291 156.053,178.927 154.572,179.711 155.333 C 180.726 156.317,177.150 159.859,173.038 161.943 C 171.063 162.944,169.724 163.005,166.931 162.223 C 165.354 161.781,165.859 163.223,167.526 163.920 C 169.929 164.924,173.240 164.436,175.712 162.713 C 178.219 160.966,178.190 160.921,176.964 164.676 C 175.810 168.214,175.198 169.326,170.343 176.705 C 165.500 184.066,165.180 186.693,169.128 186.693 C 171.739 186.693,171.996 187.070,171.996 190.899 C 171.996 193.472,172.150 194.342,172.731 195.060 C 173.351 195.826,173.403 196.214,173.063 197.552 C 172.690 199.023,172.737 199.198,173.719 199.981 C 175.007 201.008,175.087 202.402,173.982 204.568 C 171.118 210.182,174.113 214.896,180.544 214.896 C 181.462 214.896,183.028 215.007,184.023 215.144 L 185.834 215.392 182.589 218.192 C 170.294 228.803,167.248 230.157,158.208 229.033 C 155.196 228.658,151.934 228.257,150.959 228.141 C 146.767 227.642,144.600 222.472,147.170 219.102 C 148.675 217.128,148.461 214.743,146.718 214.081 C 145.708 213.697,145.536 212.916,146.191 211.692 C 146.626 210.878,147.949 210.653,148.362 211.322 C 148.577 211.670,150.217 211.505,151.025 211.055 C 151.683 210.688,150.767 209.732,149.758 209.732 C 149.153 209.732,148.444 209.474,148.183 209.160 C 147.922 208.845,147.319 208.532,146.843 208.465 C 146.367 208.397,145.996 208.118,146.018 207.845 C 146.040 207.572,146.084 206.435,146.117 205.317 L 146.177 203.286 147.468 203.549 C 150.584 204.183,151.299 204.221,152.090 203.798 C 153.153 203.229,153.158 202.052,152.103 200.345 C 151.159 198.818,150.328 198.555,150.702 199.901 C 150.838 200.392,151.051 201.172,151.175 201.634 C 151.526 202.944,150.409 203.064,148.070 201.970 C 146.438 201.206,145.608 201.044,144.295 201.235 C 140.441 201.794,139.553 200.263,141.827 196.981 C 142.494 196.020,144.371 193.267,146.000 190.864 C 147.628 188.461,149.336 186.024,149.795 185.450 C 150.391 184.705,150.690 183.623,150.840 181.676 C 150.958 180.151,151.394 178.264,151.830 177.397 C 153.127 174.820,153.745 172.741,154.144 169.614 C 154.841 164.152,156.575 160.962,159.583 159.610 C 161.197 158.884,161.724 158.023,160.874 157.498 C 160.087 157.011,155.831 159.701,154.538 161.501 C 152.403 164.474,150.940 163.505,150.949 159.124 C 150.956 156.016,151.270 155.158,152.262 155.539 C 153.391 155.972,156.773 154.907,158.766 153.491 C 161.524 151.530,162.086 151.644,161.794 154.109 C 161.620 155.581,161.728 156.338,162.219 157.088 C 163.266 158.685,163.798 158.353,163.514 156.279 C 163.050 152.895,166.189 149.437,171.400 147.590 C 174.116 146.628,174.655 146.788,177.327 149.355 M193.094 148.607 C 197.620 149.577,198.043 152.199,194.802 159.182 C 192.658 163.802,192.633 163.217,195.108 166.368 C 197.532 169.452,198.065 172.021,196.843 174.731 C 196.296 175.943,196.237 176.624,196.537 178.274 C 197.003 180.837,196.819 181.025,191.851 183.038 C 185.725 185.521,187.468 186.613,193.914 184.331 C 198.682 182.642,199.519 184.032,195.082 186.272 C 190.995 188.335,191.301 189.938,195.439 188.144 C 196.775 187.564,197.930 187.090,198.005 187.090 C 198.081 187.090,198.257 187.850,198.397 188.779 C 198.538 189.707,198.746 190.958,198.861 191.559 L 199.070 192.651 203.228 192.651 C 207.624 192.651,209.335 193.425,209.335 195.414 C 209.335 196.268,206.014 205.417,204.859 207.746 C 203.317 210.853,195.451 212.899,184.536 213.031 C 177.189 213.120,175.998 212.823,174.966 210.650 C 173.893 208.388,175.410 203.376,177.168 203.376 C 178.118 203.376,178.153 203.043,177.329 201.866 C 176.907 201.264,176.790 200.582,176.968 199.771 C 177.217 198.635,177.169 198.575,176.104 198.688 C 175.200 198.784,174.975 198.650,174.975 198.014 C 174.975 197.309,175.306 197.197,177.923 197.021 C 181.088 196.808,181.629 196.402,180.325 195.222 C 179.631 194.594,179.372 194.554,178.703 194.971 C 178.036 195.388,177.696 195.337,176.593 194.655 C 175.870 194.209,175.010 193.843,174.683 193.843 C 174.222 193.843,174.039 193.144,173.878 190.765 C 173.633 187.151,173.705 187.022,175.720 187.476 C 178.043 188.000,179.901 186.897,179.306 185.346 C 179.128 184.881,178.901 184.890,177.871 185.404 C 176.756 185.960,176.474 185.952,174.691 185.311 C 173.392 184.843,172.173 184.684,171.065 184.836 C 167.311 185.350,167.517 184.417,172.945 176.298 C 177.851 168.960,178.169 168.377,178.544 166.038 C 178.702 165.055,179.341 163.349,179.964 162.247 C 180.587 161.146,181.735 158.138,182.515 155.564 C 184.760 148.158,186.294 147.149,193.094 148.607 M206.992 150.134 C 207.997 150.512,210.425 151.815,212.387 153.029 C 217.479 156.179,221.185 157.968,224.170 158.718 C 227.531 159.562,228.002 160.139,228.600 164.141 C 229.300 168.831,229.921 170.042,232.634 172.011 C 236.347 174.705,237.864 176.346,238.550 178.412 C 239.742 182.000,238.693 183.911,237.416 180.477 C 236.344 177.594,234.994 176.477,230.946 175.120 C 225.969 173.453,225.834 173.332,224.666 169.503 C 223.483 165.626,222.718 164.787,219.527 163.877 C 216.576 163.034,214.437 160.913,212.305 156.711 C 209.810 151.796,209.069 151.341,203.561 151.341 C 198.780 151.341,198.619 151.277,199.649 149.806 C 200.403 148.729,203.647 148.874,206.992 150.134 M90.881 152.114 C 89.495 153.204,86.254 161.610,87.034 162.092 C 87.416 162.328,87.736 162.136,88.093 161.454 C 88.750 160.200,88.577 160.177,93.830 162.217 C 96.295 163.174,98.721 164.082,99.222 164.235 C 99.933 164.452,100.075 164.702,99.872 165.375 C 99.445 166.784,99.474 166.977,100.132 167.123 C 101.809 167.494,104.808 156.694,103.557 154.785 C 102.336 152.921,97.319 152.710,97.319 154.522 C 97.319 154.764,97.140 154.852,96.922 154.717 C 96.703 154.582,96.524 154.156,96.524 153.770 C 96.524 151.675,92.821 150.588,90.881 152.114 M94.396 155.062 C 95.451 155.970,95.472 156.061,94.987 157.680 C 94.434 159.527,94.251 159.557,91.238 158.298 C 89.603 157.615,89.592 157.594,90.220 156.379 C 91.484 153.933,92.654 153.564,94.396 155.062 M101.482 156.893 C 102.267 157.760,102.157 160.426,101.294 161.466 C 100.828 162.027,97.366 161.048,96.368 160.073 C 96.016 159.730,96.669 157.605,97.434 156.604 C 98.044 155.806,100.667 155.993,101.482 156.893 M204.445 158.108 C 205.884 158.726,206.143 159.027,206.364 160.344 C 206.911 163.604,207.046 163.780,210.325 165.469 C 214.113 167.422,214.966 168.455,215.209 171.384 C 215.389 173.554,215.376 173.585,214.322 173.585 C 213.311 173.585,207.349 168.146,207.349 167.224 C 207.349 166.675,201.294 162.034,199.206 160.983 C 198.113 160.434,197.181 159.952,197.133 159.912 C 197.086 159.873,197.248 159.185,197.494 158.384 L 197.941 156.927 200.361 157.161 C 201.692 157.289,203.529 157.716,204.445 158.108 M305.765 159.510 C 304.390 160.255,303.665 161.656,303.116 164.625 C 302.410 168.445,300.943 169.804,299.300 168.161 C 297.685 166.545,297.561 164.738,298.977 163.427 C 300.501 162.014,299.751 161.387,297.453 162.153 C 295.843 162.690,294.800 164.052,295.999 164.052 C 296.345 164.052,296.547 164.648,296.592 165.797 C 296.879 173.246,304.367 172.984,306.039 165.467 C 306.951 161.370,308.103 160.337,309.831 162.066 C 310.802 163.036,310.970 166.038,310.053 166.038 C 309.318 166.038,308.843 166.798,309.295 167.250 C 309.821 167.775,313.235 166.628,313.078 165.979 C 313.007 165.683,312.784 165.382,312.582 165.310 C 312.380 165.237,312.214 164.611,312.213 163.919 C 312.209 160.470,308.575 157.985,305.765 159.510 M198.694 162.860 C 199.854 163.300,201.760 164.527,202.952 165.602 L 205.110 167.549 202.754 167.730 C 201.458 167.830,200.040 168.023,199.603 168.159 C 198.433 168.522,195.223 163.993,195.837 162.846 C 196.345 161.897,196.145 161.896,198.694 162.860 M180.636 166.070 C 179.718 166.604,179.749 167.229,180.693 167.229 C 182.647 167.229,186.568 168.850,187.874 170.197 C 189.274 171.642,190.023 171.919,190.490 171.165 C 191.750 169.126,183.083 164.644,180.636 166.070 M180.735 168.822 C 180.224 169.165,180.262 169.320,181.002 169.914 C 181.477 170.294,181.924 171.053,181.996 171.599 C 182.161 172.870,183.211 172.890,183.508 171.628 C 183.810 170.350,184.384 170.217,185.541 171.155 L 186.495 171.929 185.402 172.204 C 184.801 172.356,184.310 172.716,184.310 173.004 C 184.310 173.653,186.549 173.104,187.408 172.246 C 189.094 170.560,182.891 167.377,180.735 168.822 M207.200 170.389 C 208.248 170.852,209.289 171.768,210.090 172.932 C 211.077 174.367,211.697 174.842,213.019 175.180 C 217.119 176.226,217.703 176.996,217.806 181.484 C 217.888 185.026,217.080 186.000,214.665 185.273 C 213.649 184.967,212.658 184.816,212.463 184.936 C 211.002 185.839,208.337 182.041,209.235 180.338 C 210.304 178.309,208.721 173.712,206.570 172.600 C 204.303 171.428,203.962 171.879,205.696 173.760 C 210.822 179.322,204.725 182.848,199.429 177.384 C 198.163 176.078,198.160 176.068,198.781 174.582 C 199.124 173.762,199.404 172.493,199.404 171.762 C 199.404 169.211,203.072 168.565,207.200 170.389 M185.773 173.831 C 182.433 174.857,183.437 175.532,187.201 174.791 C 190.813 174.080,190.967 174.019,190.257 173.570 C 189.446 173.057,188.021 173.140,185.773 173.831 M82.893 175.074 C 82.798 175.238,82.598 176.384,82.449 177.620 C 82.134 180.218,81.626 179.666,88.153 183.821 L 92.295 186.458 86.763 188.254 C 83.721 189.242,81.195 190.061,81.151 190.074 C 80.749 190.192,80.403 194.887,80.778 195.128 C 81.575 195.641,81.841 195.460,82.085 194.240 C 82.369 192.823,82.227 192.833,88.977 193.777 L 93.942 194.472 94.067 195.746 C 94.181 196.918,95.001 197.490,95.467 196.723 C 96.054 195.757,96.191 190.268,95.628 190.268 C 95.284 190.268,94.932 190.780,94.791 191.488 C 94.606 192.412,94.377 192.659,93.847 192.506 C 93.463 192.395,91.788 192.185,90.125 192.039 C 87.000 191.765,85.479 191.280,86.605 190.917 C 86.927 190.813,89.245 190.066,91.758 189.257 C 94.270 188.448,96.445 187.674,96.591 187.537 C 96.738 187.401,94.551 185.859,91.732 184.111 C 86.813 181.061,85.572 179.998,87.488 180.473 C 87.979 180.596,90.025 180.905,92.034 181.162 L 95.687 181.628 95.808 182.869 C 95.884 183.655,96.148 184.111,96.524 184.111 C 97.274 184.111,98.260 177.138,97.574 176.690 C 96.984 176.304,96.524 176.684,96.524 177.557 C 96.524 178.824,95.813 178.885,89.917 178.126 L 84.211 177.391 84.211 176.084 C 84.211 174.870,83.380 174.234,82.893 175.074 M224.377 178.892 C 228.961 183.771,225.779 191.965,220.494 188.894 C 218.231 187.579,218.191 187.490,219.166 186.002 C 219.671 185.231,219.869 184.085,219.890 181.812 C 219.923 178.377,220.174 177.971,222.274 177.960 C 223.050 177.957,223.817 178.296,224.377 178.892 M314.201 180.048 L 314.201 181.348 308.937 182.041 C 302.312 182.912,302.419 182.917,302.121 181.728 C 301.751 180.254,300.695 180.451,300.695 181.993 C 300.695 184.859,301.553 188.328,302.229 188.197 C 302.699 188.106,302.846 187.730,302.757 186.844 L 302.634 185.618 308.119 184.930 C 311.136 184.552,313.873 184.213,314.201 184.177 C 314.577 184.136,314.843 184.514,314.922 185.204 C 315.014 185.998,315.269 186.296,315.860 186.296 C 316.558 186.296,316.640 186.115,316.445 185.005 C 316.321 184.295,316.099 182.597,315.953 181.231 C 315.646 178.369,314.201 177.393,314.201 180.048 M200.691 180.328 C 201.467 180.938,201.785 181.709,202.125 183.803 C 202.365 185.283,202.775 187.227,203.035 188.122 C 203.627 190.158,203.305 191.063,201.989 191.063 C 200.717 191.063,200.437 190.365,199.836 185.700 C 199.583 183.734,199.273 181.544,199.147 180.834 C 198.883 179.344,199.276 179.215,200.691 180.328 M153.227 181.364 C 153.100 181.491,153.094 182.896,153.214 184.485 C 153.361 186.428,153.285 187.466,152.983 187.653 C 152.232 188.117,152.478 189.076,153.347 189.076 C 154.330 189.076,155.313 186.998,155.313 184.918 C 155.313 184.085,155.514 183.497,155.809 183.470 C 157.966 183.271,161.141 184.513,162.699 186.165 C 164.779 188.370,165.554 187.754,163.974 185.151 C 162.373 182.511,154.762 179.829,153.227 181.364 M205.130 182.778 C 206.034 183.190,206.104 183.392,205.890 184.957 C 205.757 185.928,205.877 187.482,206.166 188.512 C 206.663 190.287,206.420 191.027,205.333 191.056 C 205.047 191.064,204.126 186.720,203.881 184.211 C 203.679 182.139,203.693 182.123,205.130 182.778 M209.851 185.700 C 210.616 186.465,211.629 187.090,212.103 187.090 L 212.964 187.090 212.094 188.312 C 211.410 189.272,211.266 189.908,211.421 191.284 C 211.640 193.219,210.820 194.550,210.105 193.420 C 209.906 193.107,209.741 192.681,209.738 192.474 C 209.735 192.267,209.305 191.463,208.784 190.687 C 208.206 189.825,207.743 188.410,207.596 187.053 C 207.249 183.842,207.714 183.563,209.851 185.700 M156.311 186.594 C 156.655 189.163,156.782 189.474,157.485 189.474 C 157.865 189.474,158.093 189.110,158.093 188.504 C 158.093 187.182,158.638 186.950,159.501 187.904 C 160.407 188.905,159.901 189.499,157.857 189.831 C 156.166 190.106,155.978 190.802,157.543 190.995 C 162.116 191.560,163.540 188.405,159.822 185.942 C 156.949 184.039,155.993 184.217,156.311 186.594 M232.148 187.356 C 233.386 187.947,234.757 189.848,234.757 190.975 C 234.757 191.189,233.411 191.563,231.767 191.808 C 228.196 192.339,226.018 193.178,226.018 194.021 C 226.018 194.745,227.034 194.797,229.593 194.204 C 234.430 193.084,237.109 193.986,237.131 196.741 C 237.155 199.781,233.503 200.607,229.753 198.410 C 228.051 197.412,226.018 197.084,226.018 197.807 C 226.018 198.255,223.992 197.456,223.541 196.830 C 223.040 196.134,223.185 191.857,223.709 191.857 C 224.740 191.857,226.869 189.978,227.648 188.381 C 228.592 186.448,229.709 186.193,232.148 187.356 M218.426 189.884 C 220.449 191.349,221.039 192.531,220.687 194.409 C 220.354 196.187,219.830 196.191,217.772 194.429 C 216.872 193.659,215.503 192.764,214.728 192.440 C 213.815 192.058,213.233 191.503,213.071 190.856 C 212.464 188.438,215.635 187.862,218.426 189.884 M216.616 195.967 C 217.527 196.699,219.760 197.816,221.578 198.450 C 227.658 200.570,227.660 200.892,221.618 205.284 C 213.756 210.997,208.502 216.307,199.817 227.318 C 195.890 232.297,196.017 232.239,195.432 229.295 C 195.042 227.330,193.971 222.474,192.651 216.685 C 192.215 214.773,192.237 214.751,195.233 214.132 C 205.147 212.085,206.580 210.720,210.511 199.584 C 212.419 194.176,213.551 193.506,216.616 195.967 M314.201 196.822 C 314.201 197.153,314.554 197.418,314.995 197.418 C 315.697 197.418,315.790 197.683,315.790 199.702 L 315.790 201.986 310.129 201.867 C 303.409 201.726,303.476 201.743,303.476 200.211 C 303.476 199.272,303.301 199.007,302.681 199.007 C 301.940 199.007,301.887 199.272,301.887 202.979 C 301.887 206.245,301.993 206.951,302.483 206.951 C 302.876 206.951,303.078 206.558,303.078 205.793 C 303.078 204.301,302.896 204.336,309.526 204.568 L 315.194 204.767 315.313 207.051 C 315.428 209.265,315.401 209.335,314.419 209.335 C 312.542 209.335,313.246 210.434,315.223 210.591 C 317.427 210.766,318.134 210.443,317.423 209.587 C 316.822 208.863,317.239 197.779,317.882 197.363 C 318.695 196.838,317.664 196.226,315.965 196.226 C 314.661 196.226,314.201 196.382,314.201 196.822 M229.321 199.963 C 230.797 201.080,233.147 201.761,235.254 201.684 C 237.296 201.610,238.057 202.403,236.510 202.994 C 232.622 204.479,229.196 204.038,229.196 202.054 C 229.196 201.839,228.740 201.066,228.182 200.335 C 226.995 198.779,227.527 198.606,229.321 199.963 M243.940 203.775 C 245.055 207.496,243.587 209.191,237.933 210.705 C 233.365 211.929,232.142 211.976,231.593 210.950 C 231.006 209.852,230.992 209.865,233.098 209.616 C 237.166 209.134,243.107 206.431,242.166 205.490 C 242.006 205.329,240.228 205.774,238.216 206.477 C 233.147 208.250,230.785 208.156,230.785 206.181 C 230.785 206.012,231.812 205.765,233.069 205.632 C 235.693 205.356,239.481 204.134,241.272 202.986 C 243.020 201.866,243.402 201.979,243.940 203.775 M81.529 208.037 C 80.598 208.360,81.489 214.896,82.464 214.896 C 83.034 214.896,83.154 214.517,83.043 213.077 C 82.976 212.204,88.249 210.924,91.910 210.924 C 94.067 210.924,95.730 212.648,95.730 214.883 C 95.730 217.429,94.656 218.225,90.142 219.026 C 88.081 219.392,85.928 219.783,85.356 219.895 C 84.453 220.073,84.286 219.942,84.075 218.888 C 83.897 217.998,83.611 217.676,82.997 217.676 C 82.297 217.676,82.197 217.853,82.382 218.769 C 82.503 219.369,82.804 221.068,83.050 222.542 C 83.550 225.535,85.210 226.787,84.931 223.961 L 84.806 222.698 89.635 221.846 C 96.176 220.692,97.731 219.452,97.707 215.405 C 97.678 210.311,94.686 208.486,88.002 209.483 C 82.612 210.288,82.623 210.288,82.616 209.434 C 82.607 208.463,82.117 207.833,81.529 208.037 M252.460 208.725 C 254.685 209.654,255.155 211.277,254.508 215.798 L 253.983 219.464 251.185 219.579 C 247.724 219.722,247.032 219.204,247.984 217.182 C 249.309 214.369,249.249 213.222,247.664 211.147 C 246.115 209.116,246.176 208.700,248.064 208.432 C 250.378 208.102,251.083 208.149,252.460 208.725 M246.286 212.526 C 247.045 213.592,247.044 213.627,246.240 216.009 C 245.793 217.333,245.484 219.009,245.554 219.734 L 245.680 221.053 250.844 221.500 C 256.975 222.032,256.061 221.622,256.803 224.174 C 258.125 228.721,256.344 230.089,252.991 227.103 C 251.649 225.907,249.174 224.195,247.491 223.298 C 243.264 221.046,242.859 220.545,243.480 218.329 C 243.861 216.966,243.866 216.083,243.499 214.318 C 242.715 210.542,244.195 209.590,246.286 212.526 M241.304 214.834 C 241.462 216.202,241.391 217.833,241.129 218.805 C 240.431 221.397,241.526 222.667,246.673 225.230 C 250.273 227.023,254.332 231.173,253.970 232.690 C 253.589 234.283,253.488 234.364,252.393 233.947 C 251.840 233.737,250.540 233.565,249.503 233.565 L 247.618 233.565 247.092 231.511 C 246.486 229.149,244.887 227.247,240.970 224.230 C 237.615 221.647,237.328 221.017,238.339 218.453 C 238.772 217.354,239.126 215.783,239.126 214.960 C 239.126 211.756,240.934 211.652,241.304 214.834 M232.073 213.139 C 232.200 213.266,231.852 214.239,231.300 215.303 C 229.702 218.383,229.858 220.621,231.880 223.632 C 234.809 227.995,235.319 230.243,233.589 231.169 C 232.641 231.676,231.530 230.229,230.704 227.408 C 230.132 225.455,228.430 222.872,226.825 221.521 C 225.091 220.062,225.338 216.356,227.264 214.942 C 228.735 213.862,231.689 212.755,232.073 213.139 M237.537 213.928 C 237.537 214.488,236.989 216.083,236.319 217.473 C 234.879 220.457,235.040 221.756,237.176 224.414 C 240.943 229.102,237.331 237.954,231.664 237.921 C 229.100 237.906,228.120 237.318,227.016 235.130 C 225.346 231.822,223.412 230.682,221.014 231.594 C 219.615 232.125,219.095 231.621,219.147 229.782 C 219.290 224.765,222.552 225.919,227.396 232.698 C 228.491 234.231,229.024 234.690,229.341 234.373 C 230.240 233.474,225.595 226.406,223.084 224.854 C 221.325 223.767,221.294 223.439,222.899 222.879 C 225.426 221.998,227.231 223.546,228.987 228.097 C 231.057 233.466,233.075 234.886,235.371 232.590 C 237.162 230.799,236.613 227.340,233.769 222.500 C 231.899 219.318,232.191 216.429,234.668 213.605 C 235.662 212.471,237.537 212.682,237.537 213.928 M300.336 217.674 C 300.096 218.789,299.901 219.871,299.901 220.079 C 299.901 220.709,301.028 220.502,301.421 219.799 C 301.860 219.014,304.270 220.439,304.270 221.483 C 304.270 223.542,302.905 226.815,302.020 226.879 C 299.918 227.028,299.702 226.986,299.702 226.421 C 299.702 225.278,298.355 225.500,298.089 226.687 C 297.951 227.302,297.677 228.431,297.481 229.196 C 296.993 231.099,297.011 231.182,297.915 231.182 C 298.352 231.182,298.709 230.936,298.709 230.637 C 298.709 230.167,306.752 228.638,313.005 227.919 C 315.154 227.672,314.279 226.578,308.281 222.010 C 304.666 219.258,302.280 217.167,302.207 216.687 C 301.941 214.957,300.788 215.566,300.336 217.674 M308.169 223.977 L 310.226 225.512 307.744 225.917 C 304.671 226.420,304.684 226.428,305.184 224.240 C 305.682 222.067,305.617 222.073,308.169 223.977 M317.459 223.861 C 315.638 225.137,316.818 227.700,318.892 226.970 C 320.241 226.496,320.393 224.614,319.147 223.788 C 318.454 223.327,318.206 223.338,317.459 223.861 M243.510 229.513 C 246.730 232.645,246.738 233.565,243.544 233.565 C 240.598 233.565,240.294 233.204,240.419 229.856 C 240.538 226.647,240.561 226.645,243.510 229.513 M315.384 230.005 C 314.784 231.127,315.258 232.325,316.417 232.615 C 317.599 232.912,318.570 232.190,318.570 231.014 C 318.570 229.213,316.208 228.465,315.384 230.005 M99.986 232.222 C 99.851 232.357,99.845 232.988,99.972 233.623 C 100.183 234.680,100.066 234.834,98.621 235.401 C 97.751 235.743,95.359 236.795,93.306 237.739 L 89.573 239.456 88.691 238.405 C 86.937 236.317,86.788 237.918,88.407 241.460 C 89.979 244.899,91.281 245.908,90.793 243.309 C 90.519 241.850,91.963 240.775,94.449 240.585 C 95.211 240.527,98.510 246.322,98.510 247.718 C 98.510 247.804,97.486 248.328,96.235 248.881 C 93.955 249.890,92.949 249.677,92.949 248.186 C 92.949 247.644,92.143 247.830,91.915 248.425 C 91.589 249.274,94.371 255.015,95.108 255.015 C 95.825 255.015,95.899 254.485,95.332 253.424 C 94.840 252.505,94.644 252.633,100.894 249.800 L 105.859 247.549 106.741 248.593 C 108.374 250.525,108.531 249.115,107.060 245.729 C 105.519 242.186,105.477 242.125,104.869 242.501 C 104.602 242.665,104.524 243.239,104.674 243.922 C 104.912 245.007,104.804 245.122,102.641 246.079 C 99.970 247.260,100.160 247.386,98.341 243.233 C 96.550 239.141,96.513 239.371,99.154 238.162 C 101.862 236.923,101.625 236.922,102.098 238.165 C 102.538 239.323,103.519 239.250,103.395 238.068 C 103.276 236.934,100.985 231.976,100.579 231.976 C 100.388 231.976,100.121 232.087,99.986 232.222 M224.304 233.634 C 225.539 234.794,225.474 235.038,223.739 235.763 C 222.923 236.104,221.851 236.764,221.356 237.228 L 220.457 238.073 220.457 235.839 C 220.457 232.775,222.279 231.732,224.304 233.634 M246.872 235.721 C 252.348 235.763,253.314 236.177,254.343 238.928 C 256.679 245.172,252.721 250.453,246.569 249.299 C 241.639 248.374,243.054 241.509,248.175 241.509 C 249.990 241.509,251.258 243.769,249.553 243.966 C 247.604 244.190,248.086 245.653,250.158 245.803 C 253.267 246.027,253.768 242.125,250.861 240.328 C 248.602 238.932,244.498 239.635,243.448 241.599 C 242.840 242.734,241.375 241.266,240.331 238.474 C 239.332 235.804,239.573 235.009,241.262 235.400 C 241.944 235.559,244.469 235.703,246.872 235.721 M226.880 237.797 C 227.985 238.797,227.763 239.687,226.017 241.265 C 224.163 242.939,223.804 242.999,222.568 241.837 C 220.130 239.547,224.397 235.550,226.880 237.797 M293.784 239.417 C 292.823 240.378,290.396 246.446,290.856 246.738 C 291.627 247.227,291.792 247.151,292.281 246.077 C 292.923 244.668,292.420 244.531,300.779 248.400 L 303.843 249.817 303.023 251.790 C 302.326 253.468,302.052 253.753,301.195 253.694 C 299.500 253.578,299.700 254.567,301.537 255.389 C 303.457 256.249,303.885 256.156,303.807 254.896 C 303.737 253.763,307.702 245.087,308.682 244.226 C 309.771 243.271,309.626 242.908,307.832 242.099 C 305.988 241.268,304.576 241.850,305.958 242.871 C 306.813 243.502,306.813 243.520,305.964 245.479 C 305.098 247.477,305.251 247.491,299.698 244.925 C 294.210 242.390,294.049 242.264,294.646 240.955 C 295.100 239.958,294.433 238.768,293.784 239.417 M287.019 260.803 C 285.686 262.136,286.879 264.945,288.779 264.945 C 289.857 264.945,291.162 263.565,291.162 262.425 C 291.162 260.510,288.396 259.427,287.019 260.803 M110.118 263.975 C 109.087 264.697,108.898 266.951,109.805 267.704 C 111.584 269.180,114.371 267.160,113.547 264.993 C 112.889 263.261,111.658 262.896,110.118 263.975 M272.332 270.660 C 270.926 271.924,270.100 272.951,270.270 273.226 C 270.668 273.870,271.313 273.796,272.183 273.009 C 272.897 272.363,273.048 272.462,275.671 275.293 C 278.829 278.701,278.899 278.858,277.160 278.625 C 276.450 278.530,273.472 278.176,270.542 277.838 L 265.214 277.223 263.700 278.702 C 261.900 280.460,262.184 281.899,264.042 280.437 C 265.262 279.477,265.292 279.495,268.941 283.416 C 273.762 288.595,273.534 288.244,272.683 289.185 C 271.327 290.684,272.611 291.053,274.354 289.666 C 277.607 287.077,278.842 284.285,275.874 286.230 L 274.786 286.943 272.068 283.988 C 269.026 280.681,268.817 280.238,270.452 280.565 C 274.046 281.284,282.949 282.056,283.324 281.681 C 283.716 281.289,279.764 276.616,275.905 272.911 C 274.300 271.370,274.214 271.061,275.113 270.066 C 275.697 269.421,275.600 268.499,274.952 268.536 C 274.801 268.544,273.622 269.500,272.332 270.660 M125.374 272.975 C 124.195 274.481,124.636 275.838,125.925 274.671 C 126.567 274.091,131.877 277.776,131.877 278.801 C 131.877 278.943,128.793 279.844,125.025 280.805 C 117.886 282.623,116.652 283.047,116.858 283.607 C 117.014 284.032,126.423 291.948,126.777 291.953 C 127.572 291.963,129.099 289.458,128.637 288.902 C 128.220 288.400,128.060 288.443,127.480 289.212 L 126.808 290.104 123.767 287.588 C 120.102 284.557,119.786 284.891,128.302 282.792 C 137.384 280.553,137.161 280.913,132.102 276.676 C 129.804 274.752,127.818 272.844,127.689 272.437 C 127.341 271.342,126.499 271.537,125.374 272.975 M141.542 285.036 C 141.375 285.472,141.601 285.940,142.197 286.389 L 143.107 287.076 140.774 291.204 C 137.368 297.230,137.707 300.387,141.967 302.322 C 146.122 304.209,148.604 302.984,151.587 297.575 C 154.086 293.044,154.187 292.935,155.278 293.612 C 156.000 294.059,156.187 294.051,156.494 293.559 C 156.863 292.965,156.343 291.956,155.667 291.956 C 155.479 291.956,154.432 291.407,153.341 290.736 C 152.250 290.065,151.175 289.628,150.952 289.766 C 150.238 290.208,150.517 291.165,151.489 291.608 L 152.431 292.038 150.462 295.671 C 147.534 301.075,145.753 302.318,142.991 300.890 C 140.763 299.737,140.418 297.576,142.009 294.731 C 142.556 293.751,143.550 291.906,144.216 290.632 C 145.167 288.813,145.573 288.374,146.100 288.591 C 147.770 289.280,148.163 289.268,148.157 288.527 C 148.149 287.398,141.901 284.100,141.542 285.036 M251.241 286.934 C 248.698 288.498,247.592 289.892,249.057 289.689 C 249.384 289.643,249.993 289.554,250.408 289.490 C 250.994 289.401,251.819 290.449,254.069 294.141 C 257.244 299.350,257.379 299.727,256.207 300.099 C 255.392 300.358,255.134 301.271,255.765 301.661 C 256.399 302.053,262.237 298.278,261.990 297.636 C 261.868 297.316,261.768 296.970,261.768 296.867 C 261.768 296.763,261.370 296.956,260.885 297.296 C 259.621 298.181,259.643 298.198,257.770 295.035 C 256.831 293.451,255.437 291.114,254.670 289.841 C 253.264 287.507,253.275 287.207,254.788 286.676 C 255.214 286.527,254.799 285.198,254.332 285.215 C 254.162 285.221,252.771 285.994,251.241 286.934 M234.820 294.746 C 231.472 296.034,231.401 296.083,231.714 296.900 C 231.900 297.385,232.164 297.426,233.010 297.105 C 234.344 296.598,234.066 296.195,236.203 301.731 C 238.608 307.962,238.612 307.987,237.378 308.549 C 236.251 309.063,236.354 310.443,237.493 310.100 C 239.732 309.425,246.949 306.504,247.319 306.122 C 247.921 305.500,246.907 303.078,246.045 303.078 C 245.568 303.078,245.476 303.340,245.659 304.173 C 245.884 305.197,245.763 305.319,243.804 306.053 C 242.651 306.485,241.591 306.895,241.448 306.965 C 241.305 307.034,240.450 305.161,239.548 302.801 C 238.646 300.441,237.659 297.952,237.355 297.269 C 236.778 295.973,237.115 295.134,238.213 295.134 C 238.497 295.134,238.729 294.777,238.729 294.340 C 238.729 293.337,238.392 293.372,234.820 294.746 M167.896 296.983 C 167.342 297.538,167.655 298.312,168.434 298.312 C 169.700 298.312,169.728 299.101,168.619 303.519 C 166.672 311.275,166.949 310.629,165.686 310.376 C 164.630 310.165,163.587 311.102,164.367 311.559 C 165.483 312.214,174.215 313.848,175.404 313.625 C 178.160 313.108,179.184 309.689,177.266 307.410 C 176.581 306.597,176.354 306.062,176.650 305.963 C 178.087 305.484,179.146 304.152,179.146 302.825 C 179.146 300.052,178.126 299.268,172.762 297.922 C 170.921 297.459,169.133 296.999,168.790 296.898 C 168.446 296.797,168.044 296.835,167.896 296.983 M175.670 300.613 C 177.090 301.844,175.417 305.548,173.733 304.902 C 173.398 304.773,172.780 304.667,172.361 304.667 C 171.475 304.667,171.353 303.383,172.013 301.006 C 172.462 299.389,174.061 299.217,175.670 300.613 M213.708 300.163 C 211.854 300.473,210.180 300.883,209.989 301.073 C 209.407 301.656,210.110 302.284,211.344 302.284 C 211.987 302.284,212.512 302.418,212.513 302.582 C 212.513 302.746,212.866 305.025,213.299 307.646 C 214.325 313.868,214.319 314.060,213.108 314.364 C 211.987 314.645,211.741 315.803,212.810 315.765 C 217.498 315.596,221.691 313.821,218.199 313.482 C 217.010 313.367,216.914 313.237,216.580 311.298 C 215.956 307.680,216.852 307.674,220.270 311.273 C 223.329 314.496,223.247 314.466,226.494 313.555 C 227.550 313.259,226.868 312.214,225.618 312.214 C 224.779 312.214,224.018 311.678,222.496 310.012 L 220.483 307.810 221.761 306.668 C 223.587 305.037,223.560 302.287,221.702 300.627 C 220.247 299.327,219.112 299.261,213.708 300.163 M189.329 301.293 C 189.062 301.988,189.422 302.284,190.533 302.284 L 191.460 302.284 191.460 308.011 C 191.460 314.650,191.379 314.995,189.828 314.995 C 188.685 314.995,188.229 315.675,189.176 315.968 C 189.449 316.052,192.130 316.230,195.134 316.363 L 200.596 316.604 200.596 315.005 C 200.596 313.849,200.431 313.406,200.000 313.406 C 199.669 313.406,199.404 313.759,199.404 314.201 C 199.404 314.913,199.139 314.995,196.846 314.995 C 193.809 314.995,193.725 314.899,194.073 311.822 L 194.343 309.434 196.079 309.434 C 197.550 309.434,197.815 309.555,197.815 310.228 C 197.815 310.758,198.080 311.023,198.610 311.023 C 199.240 311.023,199.405 310.756,199.410 309.732 C 199.413 309.022,199.523 308.039,199.655 307.547 C 199.938 306.491,198.357 306.213,197.959 307.249 C 197.804 307.654,197.170 307.845,195.985 307.845 L 194.240 307.845 194.240 305.263 L 194.240 302.681 196.822 302.681 C 199.311 302.681,199.404 302.717,199.404 303.674 C 199.404 304.922,200.415 304.997,200.743 303.774 C 201.334 301.567,200.473 299.865,199.338 300.999 C 198.966 301.371,195.179 301.337,190.990 300.922 C 190.045 300.829,189.457 300.960,189.329 301.293 M219.265 301.887 C 221.002 303.624,219.978 306.372,217.400 306.887 C 215.913 307.185,215.819 307.043,215.473 303.992 C 215.145 301.091,217.283 299.904,219.265 301.887 M173.486 306.643 C 176.270 307.907,175.808 311.823,172.876 311.812 C 170.119 311.802,169.505 311.461,169.779 310.094 C 170.689 305.542,170.811 305.429,173.486 306.643 " stroke="none" fill="#00376c" fill-rule="evenodd"></path><path id="path1" d="M0.000 198.610 L 0.000 397.219 200.000 397.219 L 400.000 397.219 400.000 198.610 L 400.000 0.000 200.000 0.000 L 0.000 0.000 0.000 198.610 M198.113 80.489 C 199.496 80.859,199.322 82.318,197.915 82.154 L 196.822 82.026 196.711 87.109 L 196.600 92.192 197.773 93.365 C 201.326 96.919,204.566 93.642,204.567 86.495 L 204.568 82.224 203.376 82.224 C 202.442 82.224,202.185 82.050,202.185 81.414 C 202.185 80.269,208.643 80.380,208.863 81.529 C 208.965 82.063,208.726 82.224,207.833 82.224 C 206.600 82.224,206.157 84.296,206.157 90.069 C 206.157 94.993,201.235 97.685,196.578 95.309 C 194.266 94.130,193.843 92.815,193.843 86.805 L 193.843 81.827 192.651 81.827 C 191.531 81.827,191.065 81.162,191.725 80.503 C 192.054 80.174,196.899 80.163,198.113 80.489 M223.492 82.815 L 225.481 83.405 228.193 89.170 C 231.349 95.877,231.216 95.784,232.300 92.056 C 233.658 87.385,233.719 86.991,233.088 86.991 C 232.140 86.991,231.164 86.049,231.523 85.481 C 232.038 84.667,237.934 86.496,237.934 87.469 C 237.934 88.028,237.662 88.164,236.695 88.085 C 235.330 87.974,235.203 88.282,232.750 97.617 C 231.556 102.161,231.274 101.993,227.762 94.638 C 224.436 87.671,224.571 87.726,223.269 92.824 C 222.237 96.869,222.236 96.854,223.436 97.156 C 224.348 97.385,224.728 98.079,224.220 98.587 C 223.778 99.029,217.875 97.096,217.875 96.510 C 217.875 96.100,218.250 95.958,219.151 96.027 C 220.342 96.120,220.456 96.015,220.875 94.438 C 221.122 93.510,221.754 91.256,222.281 89.429 C 223.528 85.100,223.508 84.661,222.046 84.151 C 220.916 83.757,220.535 83.073,221.119 82.489 C 221.446 82.162,221.162 82.123,223.492 82.815 M166.793 85.859 C 167.558 88.052,166.986 89.088,165.860 87.548 C 165.320 86.810,162.148 87.505,161.789 88.441 C 161.683 88.718,162.394 91.321,163.369 94.224 L 165.142 99.503 166.645 99.503 C 169.280 99.503,168.551 100.322,164.757 101.625 C 162.731 102.320,160.938 102.887,160.775 102.885 C 160.045 102.873,160.574 101.627,161.486 101.211 C 162.714 100.652,162.652 100.235,160.408 93.957 C 158.534 88.717,158.959 89.155,156.531 89.962 C 154.686 90.574,154.540 90.713,154.770 91.630 C 155.201 93.346,153.691 92.603,153.064 90.791 C 152.508 89.183,152.844 88.420,153.925 88.835 C 154.597 89.092,164.170 85.801,164.645 85.150 C 165.330 84.211,166.334 84.542,166.793 85.859 M183.258 89.414 C 183.546 90.641,177.797 92.376,177.098 91.274 C 176.108 89.713,176.678 89.091,179.643 88.496 C 182.783 87.866,182.902 87.896,183.258 89.414 M253.310 93.644 C 256.603 95.330,257.317 97.246,254.168 95.948 C 253.653 95.736,252.980 96.701,250.891 100.650 C 248.426 105.310,247.850 106.844,248.560 106.858 C 249.288 106.873,249.857 107.567,249.628 108.162 C 249.381 108.807,246.505 107.664,243.619 105.773 C 242.315 104.919,242.841 104.023,244.341 104.546 C 244.991 104.772,245.574 104.892,245.636 104.813 C 246.908 103.196,250.966 94.334,250.559 94.062 C 250.279 93.875,249.801 93.571,249.497 93.388 C 248.899 93.026,249.219 92.155,249.950 92.155 C 250.197 92.155,251.709 92.825,253.310 93.644 M143.086 97.336 C 147.015 98.427,149.591 103.295,148.189 106.981 C 147.193 109.602,138.771 115.902,137.709 114.821 C 137.346 114.452,137.443 114.176,138.133 113.612 C 139.283 112.672,139.313 112.816,137.318 109.711 C 136.377 108.248,135.003 106.068,134.263 104.866 C 133.523 103.664,132.868 102.612,132.807 102.528 C 132.746 102.444,132.260 102.661,131.727 103.010 C 130.177 104.026,129.448 102.848,130.967 101.781 C 137.031 97.522,139.929 96.460,143.086 97.336 M137.339 99.755 C 134.926 100.833,134.908 100.731,138.468 106.410 C 141.922 111.922,141.630 111.758,143.985 109.502 C 145.982 107.588,146.414 105.259,145.204 102.919 C 144.547 101.649,142.020 99.308,141.297 99.299 C 141.032 99.296,140.457 99.208,140.020 99.104 C 139.583 98.999,138.376 99.292,137.339 99.755 M266.353 101.339 C 268.754 103.152,269.233 104.291,267.426 103.894 C 266.249 103.636,265.819 104.630,264.322 111.070 C 263.746 113.548,263.343 113.614,268.815 110.337 C 272.415 108.181,272.780 107.842,271.877 107.495 C 271.396 107.311,271.358 107.091,271.698 106.455 C 272.115 105.675,272.188 105.695,273.999 107.078 C 276.168 108.733,276.360 109.428,274.657 109.448 C 273.578 109.461,271.172 110.748,262.235 116.094 C 260.083 117.381,260.063 116.679,262.040 109.075 C 263.527 103.353,263.793 101.843,263.421 101.246 C 262.122 99.166,263.535 99.211,266.353 101.339 M119.822 112.229 C 119.951 112.565,119.738 113.192,119.349 113.622 C 118.960 114.052,118.776 114.537,118.941 114.700 C 119.106 114.862,120.865 116.738,122.849 118.868 C 126.988 123.312,126.842 123.257,128.907 121.143 C 130.314 119.702,130.416 119.462,129.948 118.712 C 129.019 117.226,130.094 116.845,131.477 118.170 C 132.134 118.800,132.671 119.418,132.671 119.544 C 132.671 120.284,124.233 127.569,123.836 127.172 C 123.513 126.850,123.586 126.520,124.110 125.942 C 125.365 124.555,117.055 115.656,115.673 116.907 C 114.805 117.693,114.002 117.781,114.002 117.091 C 114.002 116.556,118.751 111.619,119.266 111.619 C 119.443 111.619,119.693 111.893,119.822 112.229 M286.829 119.510 C 288.444 121.338,290.169 122.987,290.663 123.175 C 291.893 123.643,291.786 124.410,290.340 125.479 C 288.852 126.579,287.473 126.348,288.533 125.176 C 289.193 124.447,287.056 121.152,285.923 121.152 C 285.350 121.152,282.438 123.673,282.430 124.177 C 282.417 124.963,284.668 127.258,284.971 126.767 C 285.376 126.113,286.395 126.213,286.395 126.906 C 286.395 128.113,283.490 130.320,282.820 129.622 C 282.367 129.150,282.343 128.957,282.721 128.817 C 283.527 128.518,283.295 127.731,282.049 126.537 L 280.881 125.418 279.330 126.646 C 276.753 128.687,276.753 128.686,278.649 130.865 C 280.152 132.594,280.439 132.767,281.011 132.292 C 281.500 131.886,281.776 131.865,282.117 132.206 C 282.606 132.695,281.114 134.666,280.268 134.648 C 279.732 134.637,272.493 126.542,272.493 125.954 C 272.493 125.298,273.964 125.437,274.225 126.117 C 274.612 127.126,275.060 126.842,279.622 122.689 C 283.817 118.870,284.008 118.628,283.383 117.937 C 282.743 117.231,282.875 115.787,283.555 116.054 C 283.740 116.127,285.214 117.682,286.829 119.510 M111.258 129.624 C 115.233 131.723,116.728 137.365,114.256 140.934 C 110.759 145.979,102.707 145.053,100.317 139.332 C 97.483 132.549,104.689 126.154,111.258 129.624 M103.630 131.655 C 101.150 133.057,101.177 136.470,103.689 139.195 C 106.965 142.749,112.163 142.671,113.247 139.051 C 114.573 134.625,107.710 129.348,103.630 131.655 M301.097 139.072 C 303.580 143.375,303.991 145.423,302.699 147.061 C 301.450 148.643,299.157 149.239,297.499 148.412 C 296.786 148.056,296.144 147.766,296.072 147.766 C 295.502 147.766,293.533 152.790,293.630 153.998 C 293.793 156.047,293.027 156.023,291.925 153.945 L 290.975 152.155 292.657 148.763 C 295.077 143.884,294.814 143.181,291.332 145.221 C 289.372 146.370,289.406 146.314,290.007 147.437 C 290.594 148.534,289.827 149.399,289.026 148.543 C 288.132 147.587,285.620 142.715,285.885 142.450 C 286.384 141.951,287.144 142.228,287.388 142.999 C 287.737 144.098,287.656 144.126,293.280 140.973 C 298.238 138.193,298.657 137.805,297.935 136.662 C 297.734 136.345,297.658 135.943,297.766 135.769 C 298.306 134.895,299.195 135.776,301.097 139.072 M217.499 136.274 C 227.301 137.638,236.150 142.986,239.637 149.656 C 249.792 169.076,252.865 189.596,246.983 198.697 C 245.441 201.082,245.419 201.170,245.682 203.787 L 245.949 206.450 249.390 206.282 C 255.418 205.987,256.388 207.123,256.444 214.542 C 256.482 219.625,256.496 219.705,257.602 220.859 C 259.590 222.935,259.506 227.671,257.424 230.827 C 255.847 233.218,255.596 234.915,256.459 237.345 C 257.274 239.641,257.346 243.823,256.615 246.434 C 254.639 253.492,241.708 253.214,241.708 246.114 C 241.708 244.289,241.546 243.869,240.404 242.726 C 239.673 241.996,238.898 240.668,238.641 239.708 L 238.183 237.994 237.211 238.759 C 236.480 239.333,235.604 239.523,233.684 239.523 C 230.559 239.523,229.936 239.821,227.368 242.541 C 225.063 244.982,223.902 245.253,221.999 243.793 C 218.529 241.133,218.804 241.664,218.437 236.921 C 218.253 234.529,217.921 231.721,217.701 230.681 C 216.723 226.053,219.389 220.854,222.741 220.854 C 223.444 220.854,223.562 220.542,223.703 218.319 C 223.911 215.060,225.084 213.242,227.706 212.112 C 229.918 211.159,230.009 210.722,228.771 207.054 C 227.555 203.456,227.549 203.455,223.026 206.542 C 219.110 209.214,215.776 212.486,204.799 224.429 C 193.310 236.930,185.000 253.081,183.618 265.595 C 183.348 268.041,183.222 268.335,182.394 268.452 C 180.580 268.709,180.313 268.348,180.919 266.454 C 181.220 265.515,182.206 262.108,183.112 258.884 C 185.127 251.704,189.033 242.624,192.065 238.067 C 194.653 234.178,194.614 235.360,192.459 226.018 C 191.678 222.632,190.867 218.998,190.658 217.943 C 190.084 215.053,188.989 214.348,187.771 216.087 C 185.162 219.812,172.840 228.737,168.233 230.239 C 164.263 231.533,164.220 233.339,167.980 240.896 C 171.254 247.475,171.649 249.060,171.512 255.061 L 171.400 259.980 170.308 260.106 L 169.215 260.232 169.215 254.830 C 169.215 248.620,168.886 247.312,165.654 240.704 C 164.188 237.706,163.654 236.155,163.654 234.891 C 163.654 232.224,162.962 231.792,157.449 231.020 C 150.216 230.008,148.746 229.641,147.068 228.425 C 144.030 226.225,143.150 221.869,145.138 218.866 C 146.465 216.861,146.444 216.259,145.002 214.911 C 143.905 213.887,143.855 213.714,144.243 212.307 C 144.517 211.317,144.527 210.510,144.273 209.953 C 144.061 209.487,143.978 207.844,144.088 206.300 L 144.289 203.494 142.590 203.266 C 138.717 202.747,137.877 199.873,140.471 196.017 C 141.349 194.712,142.774 192.572,143.639 191.261 C 144.503 189.950,145.961 187.805,146.879 186.495 C 148.375 184.359,148.570 183.810,148.758 181.215 C 148.915 179.047,149.213 177.948,149.943 176.845 C 152.324 173.248,153.530 165.969,151.897 165.054 C 147.919 162.824,147.698 156.031,151.510 153.124 C 152.304 152.518,154.268 150.389,155.873 148.393 C 157.683 146.143,159.375 144.467,160.329 143.981 C 161.175 143.550,162.939 142.095,164.250 140.747 C 168.357 136.524,177.160 135.887,177.160 139.813 C 177.160 143.713,182.007 146.998,183.795 144.309 C 188.640 137.024,201.260 134.016,217.499 136.274 M199.404 138.121 C 191.291 139.047,184.972 143.027,186.078 146.513 C 186.294 147.195,186.503 147.254,187.601 146.939 C 188.300 146.738,189.711 146.574,190.736 146.574 C 192.121 146.574,193.098 146.264,194.545 145.364 C 196.712 144.017,203.155 143.418,204.207 144.467 C 204.785 145.043,203.975 145.255,200.199 145.512 C 197.661 145.685,195.432 146.391,195.432 147.022 C 195.432 147.904,197.521 148.448,198.682 147.869 C 201.231 146.597,208.366 148.192,212.314 150.915 C 217.216 154.296,219.314 155.348,223.139 156.342 C 229.543 158.006,229.978 158.450,230.776 164.150 C 231.445 168.919,232.455 170.817,234.757 171.632 C 239.177 173.197,242.488 179.747,240.640 183.273 C 240.102 184.300,240.139 184.431,241.338 185.701 C 242.682 187.127,243.447 189.681,242.741 190.387 C 242.456 190.672,242.110 190.301,241.621 189.183 C 241.181 188.177,240.033 186.852,238.585 185.681 C 236.346 183.869,235.154 182.027,235.154 180.379 C 235.154 179.224,233.504 178.132,229.992 176.962 C 225.632 175.510,223.834 173.854,222.662 170.208 L 221.767 167.428 219.016 166.038 C 214.720 163.867,213.848 163.060,211.516 159.099 C 210.319 157.064,208.681 154.821,207.877 154.115 L 206.414 152.831 202.611 153.106 C 200.520 153.258,198.651 153.536,198.458 153.725 C 197.705 154.461,198.607 155.263,200.473 155.515 C 205.963 156.255,207.430 157.188,207.960 160.278 C 208.381 162.735,209.096 163.538,211.545 164.311 C 214.754 165.322,215.378 166.092,217.047 171.101 C 218.792 176.337,218.977 176.538,221.745 176.210 C 225.164 175.804,227.222 177.841,228.423 182.820 C 228.867 184.663,228.913 184.707,230.396 184.707 C 233.352 184.707,236.485 187.888,237.162 191.576 C 237.394 192.841,237.954 194.505,238.408 195.273 C 239.058 196.376,239.183 197.075,239.002 198.602 C 238.423 203.495,244.797 200.137,247.153 194.309 C 250.812 185.256,243.453 156.198,235.137 146.869 C 229.522 140.569,213.124 136.555,199.404 138.121 M168.222 139.426 C 166.972 139.923,164.552 142.669,165.167 142.892 C 165.453 142.996,166.486 143.691,167.464 144.437 L 169.242 145.794 171.357 145.179 C 172.930 144.722,173.747 144.669,174.547 144.973 C 177.036 145.920,177.324 145.214,175.790 141.920 C 175.119 140.477,174.547 139.792,173.907 139.662 C 171.876 139.248,168.972 139.128,168.222 139.426 M209.080 141.032 C 210.867 142.314,213.774 144.143,219.464 147.563 C 220.775 148.351,223.172 149.658,224.791 150.466 C 227.494 151.816,229.675 153.774,229.107 154.342 C 228.979 154.471,228.106 154.091,227.167 153.498 C 226.228 152.906,224.290 151.932,222.859 151.334 C 221.429 150.736,219.186 149.607,217.875 148.825 C 216.564 148.043,214.498 146.874,213.283 146.227 C 212.068 145.579,210.831 144.757,210.534 144.399 C 207.014 140.157,195.582 140.158,190.019 144.401 C 188.463 145.588,188.282 145.608,188.282 144.592 C 188.282 140.553,204.537 137.770,209.080 141.032 M297.218 141.908 L 295.168 143.201 295.986 144.493 C 298.076 147.794,302.752 145.406,300.907 141.979 C 300.003 140.300,299.775 140.296,297.218 141.908 M221.180 142.777 C 229.350 144.951,236.711 152.878,238.723 161.668 C 239.198 163.744,239.838 166.538,240.144 167.877 C 240.556 169.681,241.052 170.665,242.057 171.670 C 246.085 175.698,247.086 192.018,243.524 195.580 C 242.357 196.747,242.223 196.275,242.852 193.207 C 244.548 184.931,243.026 174.256,239.360 168.718 C 238.962 168.117,237.799 165.167,236.776 162.164 C 233.197 151.660,228.602 146.438,220.591 143.772 C 216.728 142.486,217.185 141.713,221.180 142.777 M161.115 145.834 C 160.080 146.519,158.575 147.891,157.770 148.882 C 156.965 149.873,155.591 151.366,154.717 152.199 L 153.128 153.714 154.389 153.719 C 155.219 153.722,156.261 153.257,157.441 152.356 C 159.306 150.932,162.013 149.965,163.177 150.305 C 163.599 150.428,164.569 149.862,165.761 148.796 L 167.668 147.090 166.243 145.839 C 164.455 144.268,163.480 144.267,161.115 145.834 M178.109 147.043 C 177.849 147.463,180.897 150.542,181.576 150.545 C 181.949 150.547,183.968 147.374,183.620 147.332 C 183.453 147.311,182.569 147.324,181.655 147.360 C 180.742 147.396,179.635 147.233,179.197 146.998 C 178.612 146.686,178.322 146.698,178.109 147.043 M171.400 147.590 C 166.189 149.437,163.050 152.895,163.514 156.279 C 163.798 158.353,163.266 158.685,162.219 157.088 C 161.728 156.338,161.620 155.581,161.794 154.109 C 162.086 151.644,161.524 151.530,158.766 153.491 C 156.773 154.907,153.391 155.972,152.262 155.539 C 151.270 155.158,150.956 156.016,150.949 159.124 C 150.940 163.505,152.403 164.474,154.538 161.501 C 155.831 159.701,160.087 157.011,160.874 157.498 C 161.724 158.023,161.197 158.884,159.583 159.610 C 156.575 160.962,154.841 164.152,154.144 169.614 C 153.745 172.741,153.127 174.820,151.830 177.397 C 151.394 178.264,150.958 180.151,150.840 181.676 C 150.690 183.623,150.391 184.705,149.795 185.450 C 149.336 186.024,147.628 188.461,146.000 190.864 C 144.371 193.267,142.494 196.020,141.827 196.981 C 139.553 200.263,140.441 201.794,144.295 201.235 C 145.608 201.044,146.438 201.206,148.070 201.970 C 150.409 203.064,151.526 202.944,151.175 201.634 C 151.051 201.172,150.838 200.392,150.702 199.901 C 150.328 198.555,151.159 198.818,152.103 200.345 C 153.158 202.052,153.153 203.229,152.090 203.798 C 151.299 204.221,150.584 204.183,147.468 203.549 L 146.177 203.286 146.117 205.317 C 146.084 206.435,146.040 207.572,146.018 207.845 C 145.996 208.118,146.367 208.397,146.843 208.465 C 147.319 208.532,147.922 208.845,148.183 209.160 C 148.444 209.474,149.153 209.732,149.758 209.732 C 150.767 209.732,151.683 210.688,151.025 211.055 C 150.217 211.505,148.577 211.670,148.362 211.322 C 147.949 210.653,146.626 210.878,146.191 211.692 C 145.536 212.916,145.708 213.697,146.718 214.081 C 148.461 214.743,148.675 217.128,147.170 219.102 C 144.600 222.472,146.767 227.642,150.959 228.141 C 151.934 228.257,155.196 228.658,158.208 229.033 C 167.248 230.157,170.294 228.803,182.589 218.192 L 185.834 215.392 184.023 215.144 C 183.028 215.007,181.462 214.896,180.544 214.896 C 174.113 214.896,171.118 210.182,173.982 204.568 C 175.087 202.402,175.007 201.008,173.719 199.981 C 172.737 199.198,172.690 199.023,173.063 197.552 C 173.403 196.214,173.351 195.826,172.731 195.060 C 172.150 194.342,171.996 193.472,171.996 190.899 C 171.996 187.070,171.739 186.693,169.128 186.693 C 165.180 186.693,165.500 184.066,170.343 176.705 C 175.198 169.326,175.810 168.214,176.964 164.676 C 178.190 160.921,178.219 160.966,175.712 162.713 C 173.240 164.436,169.929 164.924,167.526 163.920 C 165.859 163.223,165.354 161.781,166.931 162.223 C 169.724 163.005,171.063 162.944,173.038 161.943 C 177.150 159.859,180.726 156.317,179.711 155.333 C 178.927 154.572,176.291 156.053,173.805 158.652 C 170.975 161.609,169.987 161.884,167.229 160.477 C 166.373 160.040,165.039 159.682,164.266 159.682 C 162.654 159.682,162.471 159.205,163.743 158.314 C 164.906 157.500,165.569 157.534,167.799 158.520 C 169.979 159.484,170.191 159.398,173.541 156.186 C 175.969 153.859,175.943 154.012,174.045 153.157 C 172.247 152.346,170.905 152.742,168.267 154.865 C 165.527 157.070,165.247 155.423,167.955 153.032 C 171.188 150.178,173.481 150.103,176.935 152.738 C 178.680 154.069,180.864 154.013,181.060 152.632 C 181.150 151.999,180.986 151.738,180.498 151.738 C 180.119 151.738,178.692 150.665,177.327 149.355 C 174.655 146.788,174.116 146.628,171.400 147.590 M186.441 148.595 C 184.746 149.087,184.166 150.117,182.515 155.564 C 181.735 158.138,180.587 161.146,179.964 162.247 C 179.341 163.349,178.702 165.055,178.544 166.038 C 178.169 168.377,177.851 168.960,172.945 176.298 C 167.517 184.417,167.311 185.350,171.065 184.836 C 172.173 184.684,173.392 184.843,174.691 185.311 C 176.474 185.952,176.756 185.960,177.871 185.404 C 178.901 184.890,179.128 184.881,179.306 185.346 C 179.901 186.897,178.043 188.000,175.720 187.476 C 173.705 187.022,173.633 187.151,173.878 190.765 C 174.039 193.144,174.222 193.843,174.683 193.843 C 175.010 193.843,175.870 194.209,176.593 194.655 C 177.696 195.337,178.036 195.388,178.703 194.971 C 179.372 194.554,179.631 194.594,180.325 195.222 C 181.629 196.402,181.088 196.808,177.923 197.021 C 175.306 197.197,174.975 197.309,174.975 198.014 C 174.975 198.650,175.200 198.784,176.104 198.688 C 177.169 198.575,177.217 198.635,176.968 199.771 C 176.790 200.582,176.907 201.264,177.329 201.866 C 178.153 203.043,178.118 203.376,177.168 203.376 C 175.410 203.376,173.893 208.388,174.966 210.650 C 177.235 215.430,202.253 213.000,204.859 207.746 C 206.014 205.417,209.335 196.268,209.335 195.414 C 209.335 193.425,207.624 192.651,203.228 192.651 L 199.070 192.651 198.861 191.559 C 198.746 190.958,198.538 189.707,198.397 188.779 C 198.257 187.850,198.081 187.090,198.005 187.090 C 197.930 187.090,196.775 187.564,195.439 188.144 C 191.301 189.938,190.995 188.335,195.082 186.272 C 199.519 184.032,198.682 182.642,193.914 184.331 C 187.468 186.613,185.725 185.521,191.851 183.038 C 196.819 181.025,197.003 180.837,196.537 178.274 C 196.237 176.624,196.296 175.943,196.843 174.731 C 198.065 172.021,197.532 169.452,195.108 166.368 C 192.633 163.217,192.658 163.802,194.802 159.182 C 197.096 154.240,197.510 151.396,196.135 150.022 C 194.557 148.443,189.522 147.702,186.441 148.595 M199.649 149.806 C 198.619 151.277,198.780 151.341,203.561 151.341 C 209.069 151.341,209.810 151.796,212.305 156.711 C 214.437 160.913,216.576 163.034,219.527 163.877 C 222.718 164.787,223.483 165.626,224.666 169.503 C 225.834 173.332,225.969 173.453,230.946 175.120 C 234.994 176.477,236.344 177.594,237.416 180.477 C 238.693 183.911,239.742 182.000,238.550 178.412 C 237.864 176.346,236.347 174.705,232.634 172.011 C 229.921 170.042,229.300 168.831,228.600 164.141 C 228.002 160.139,227.531 159.562,224.170 158.718 C 221.185 157.968,217.479 156.179,212.387 153.029 C 206.364 149.303,200.959 147.936,199.649 149.806 M95.605 152.204 C 96.111 152.679,96.524 153.384,96.524 153.770 C 96.524 154.156,96.703 154.582,96.922 154.717 C 97.140 154.852,97.319 154.764,97.319 154.522 C 97.319 152.710,102.336 152.921,103.557 154.785 C 104.808 156.694,101.809 167.494,100.132 167.123 C 99.474 166.977,99.445 166.784,99.872 165.375 C 100.075 164.702,99.933 164.452,99.222 164.235 C 98.721 164.082,96.295 163.174,93.830 162.217 C 88.577 160.177,88.750 160.200,88.093 161.454 C 87.736 162.136,87.416 162.328,87.034 162.092 C 86.254 161.610,89.495 153.204,90.881 152.114 C 92.217 151.064,94.436 151.106,95.605 152.204 M91.274 154.816 C 90.648 155.534,89.772 157.080,89.772 157.466 C 89.772 157.715,92.251 158.797,93.594 159.134 C 95.206 159.539,95.842 156.306,94.396 155.062 C 93.097 153.944,92.103 153.866,91.274 154.816 M97.434 156.604 C 95.561 159.055,95.859 160.082,98.775 161.224 C 101.187 162.169,101.626 161.904,101.976 159.292 C 102.322 156.709,98.901 154.684,97.434 156.604 M197.494 158.384 C 197.248 159.185,197.086 159.873,197.133 159.912 C 197.181 159.952,198.113 160.434,199.206 160.983 C 201.294 162.034,207.349 166.675,207.349 167.224 C 207.349 168.146,213.311 173.585,214.322 173.585 C 215.376 173.585,215.389 173.554,215.209 171.384 C 214.966 168.455,214.113 167.422,210.325 165.469 C 207.046 163.780,206.911 163.604,206.364 160.344 C 206.055 158.502,204.232 157.535,200.361 157.161 L 197.941 156.927 197.494 158.384 M309.471 159.503 C 310.967 160.277,312.211 162.280,312.213 163.919 C 312.214 164.611,312.380 165.237,312.582 165.310 C 312.784 165.382,313.007 165.683,313.078 165.979 C 313.235 166.628,309.821 167.775,309.295 167.250 C 308.843 166.798,309.318 166.038,310.053 166.038 C 310.970 166.038,310.802 163.036,309.831 162.066 C 308.103 160.337,306.951 161.370,306.039 165.467 C 304.367 172.984,296.879 173.246,296.592 165.797 C 296.547 164.648,296.345 164.052,295.999 164.052 C 294.800 164.052,295.843 162.690,297.453 162.153 C 299.751 161.387,300.501 162.014,298.977 163.427 C 297.561 164.738,297.685 166.545,299.300 168.161 C 300.943 169.804,302.410 168.445,303.116 164.625 C 304.018 159.746,306.333 157.880,309.471 159.503 M195.837 162.846 C 195.223 163.993,198.433 168.522,199.603 168.159 C 200.040 168.023,201.458 167.830,202.754 167.730 L 205.110 167.549 202.952 165.602 C 201.760 164.527,199.854 163.300,198.694 162.860 C 196.145 161.896,196.345 161.897,195.837 162.846 M185.631 166.444 C 187.635 167.386,190.878 170.537,190.490 171.165 C 190.023 171.919,189.274 171.642,187.874 170.197 C 186.568 168.850,182.647 167.229,180.693 167.229 C 179.749 167.229,179.718 166.604,180.636 166.070 C 181.745 165.423,183.784 165.576,185.631 166.444 M185.986 169.470 C 187.477 170.226,188.138 171.516,187.408 172.246 C 186.549 173.104,184.310 173.653,184.310 173.004 C 184.310 172.716,184.801 172.356,185.402 172.204 L 186.495 171.929 185.541 171.155 C 184.384 170.217,183.810 170.350,183.508 171.628 C 183.211 172.890,182.161 172.870,181.996 171.599 C 181.924 171.053,181.477 170.294,181.002 169.914 C 179.153 168.431,183.224 168.068,185.986 169.470 M200.497 169.819 C 199.645 170.297,199.404 170.725,199.404 171.762 C 199.404 172.493,199.124 173.762,198.781 174.582 C 198.160 176.068,198.163 176.078,199.429 177.384 C 204.725 182.848,210.822 179.322,205.696 173.760 C 203.962 171.879,204.303 171.428,206.570 172.600 C 208.721 173.712,210.304 178.309,209.235 180.338 C 208.337 182.041,211.002 185.839,212.463 184.936 C 212.658 184.816,213.649 184.967,214.665 185.273 C 217.080 186.000,217.888 185.026,217.806 181.484 C 217.703 176.996,217.119 176.226,213.019 175.180 C 211.697 174.842,211.077 174.367,210.090 172.932 C 208.111 170.057,203.017 168.403,200.497 169.819 M190.257 173.570 C 190.967 174.019,190.813 174.080,187.201 174.791 C 184.308 175.361,184.174 175.362,183.995 174.826 C 183.695 173.924,189.102 172.839,190.257 173.570 M84.211 176.084 L 84.211 177.391 89.917 178.126 C 95.813 178.885,96.524 178.824,96.524 177.557 C 96.524 176.684,96.984 176.304,97.574 176.690 C 98.260 177.138,97.274 184.111,96.524 184.111 C 96.148 184.111,95.884 183.655,95.808 182.869 L 95.687 181.628 92.034 181.162 C 90.025 180.905,87.979 180.596,87.488 180.473 C 85.572 179.998,86.813 181.061,91.732 184.111 C 94.551 185.859,96.738 187.401,96.591 187.537 C 96.445 187.674,94.270 188.448,91.758 189.257 C 89.245 190.066,86.927 190.813,86.605 190.917 C 85.479 191.280,87.000 191.765,90.125 192.039 C 91.788 192.185,93.463 192.395,93.847 192.506 C 94.377 192.659,94.606 192.412,94.791 191.488 C 94.932 190.780,95.284 190.268,95.628 190.268 C 96.191 190.268,96.054 195.757,95.467 196.723 C 95.001 197.490,94.181 196.918,94.067 195.746 L 93.942 194.472 88.977 193.777 C 82.227 192.833,82.369 192.823,82.085 194.240 C 81.841 195.460,81.575 195.641,80.778 195.128 C 80.403 194.887,80.749 190.192,81.151 190.074 C 81.195 190.061,83.721 189.242,86.763 188.254 L 92.295 186.458 88.153 183.821 C 81.626 179.666,82.134 180.218,82.449 177.620 C 82.836 174.421,84.211 173.222,84.211 176.084 M220.486 178.325 C 220.079 178.583,219.912 179.561,219.890 181.812 C 219.869 184.085,219.671 185.231,219.166 186.002 C 218.191 187.490,218.231 187.579,220.494 188.894 C 223.494 190.637,225.151 189.821,226.244 186.061 C 227.551 181.567,223.648 176.324,220.486 178.325 M315.953 181.231 C 316.099 182.597,316.321 184.295,316.445 185.005 C 316.640 186.115,316.558 186.296,315.860 186.296 C 315.269 186.296,315.014 185.998,314.922 185.204 C 314.843 184.514,314.577 184.136,314.201 184.177 C 313.873 184.213,311.136 184.552,308.119 184.930 L 302.634 185.618 302.757 186.844 C 302.846 187.730,302.699 188.106,302.229 188.197 C 301.553 188.328,300.695 184.859,300.695 181.993 C 300.695 180.451,301.751 180.254,302.121 181.728 C 302.419 182.917,302.312 182.912,308.937 182.041 L 314.201 181.348 314.201 180.048 C 314.201 177.393,315.646 178.369,315.953 181.231 M199.147 180.834 C 199.273 181.544,199.583 183.734,199.836 185.700 C 200.437 190.365,200.717 191.063,201.989 191.063 C 203.305 191.063,203.627 190.158,203.035 188.122 C 202.775 187.227,202.365 185.283,202.125 183.803 C 201.785 181.709,201.467 180.938,200.691 180.328 C 199.276 179.215,198.883 179.344,199.147 180.834 M159.535 182.028 C 162.589 183.201,162.941 183.449,163.974 185.151 C 165.554 187.754,164.779 188.370,162.699 186.165 C 161.141 184.513,157.966 183.271,155.809 183.470 C 155.514 183.497,155.313 184.085,155.313 184.918 C 155.313 186.998,154.330 189.076,153.347 189.076 C 152.478 189.076,152.232 188.117,152.983 187.653 C 153.285 187.466,153.361 186.428,153.214 184.485 C 153.094 182.896,153.100 181.491,153.227 181.364 C 153.771 180.820,157.380 181.201,159.535 182.028 M203.881 184.211 C 204.126 186.720,205.047 191.064,205.333 191.056 C 206.420 191.027,206.663 190.287,206.166 188.512 C 205.877 187.482,205.757 185.928,205.890 184.957 C 206.104 183.392,206.034 183.190,205.130 182.778 C 203.693 182.123,203.679 182.139,203.881 184.211 M207.617 184.571 C 207.060 185.128,207.857 189.305,208.784 190.687 C 209.305 191.463,209.735 192.267,209.738 192.474 C 209.741 192.681,209.906 193.107,210.105 193.420 C 210.820 194.550,211.640 193.219,211.421 191.284 C 211.266 189.908,211.410 189.272,212.094 188.312 L 212.964 187.090 212.103 187.090 C 211.629 187.090,210.616 186.465,209.851 185.700 C 208.437 184.286,208.082 184.106,207.617 184.571 M159.822 185.942 C 163.540 188.405,162.116 191.560,157.543 190.995 C 155.978 190.802,156.166 190.106,157.857 189.831 C 159.901 189.499,160.407 188.905,159.501 187.904 C 158.638 186.950,158.093 187.182,158.093 188.504 C 158.093 189.522,157.010 189.895,156.720 188.977 C 155.395 184.773,156.470 183.722,159.822 185.942 M227.648 188.381 C 226.869 189.978,224.740 191.857,223.709 191.857 C 223.185 191.857,223.040 196.134,223.541 196.830 C 223.992 197.456,226.018 198.255,226.018 197.807 C 226.018 197.084,228.051 197.412,229.753 198.410 C 233.503 200.607,237.155 199.781,237.131 196.741 C 237.109 193.986,234.430 193.084,229.593 194.204 C 227.034 194.797,226.018 194.745,226.018 194.021 C 226.018 193.178,228.196 192.339,231.767 191.808 C 234.985 191.329,235.068 191.242,234.147 189.303 C 232.756 186.371,228.897 185.823,227.648 188.381 M213.311 189.270 C 212.486 190.264,213.167 191.788,214.728 192.440 C 215.503 192.764,216.872 193.659,217.772 194.429 C 219.830 196.191,220.354 196.187,220.687 194.409 C 221.346 190.900,215.398 186.756,213.311 189.270 M212.396 195.341 C 212.046 195.727,211.198 197.637,210.511 199.584 C 206.580 210.720,205.147 212.085,195.233 214.132 C 192.237 214.751,192.215 214.773,192.651 216.685 C 193.971 222.474,195.042 227.330,195.432 229.295 C 196.017 232.239,195.890 232.297,199.817 227.318 C 208.502 216.307,213.756 210.997,221.618 205.284 C 227.660 200.892,227.658 200.570,221.578 198.450 C 219.760 197.816,217.527 196.699,216.616 195.967 C 214.777 194.490,213.357 194.279,212.396 195.341 M318.002 196.668 C 318.152 196.911,318.098 197.224,317.882 197.363 C 317.239 197.779,316.822 208.863,317.423 209.587 C 318.134 210.443,317.427 210.766,315.223 210.591 C 313.246 210.434,312.542 209.335,314.419 209.335 C 315.401 209.335,315.428 209.265,315.313 207.051 L 315.194 204.767 309.526 204.568 C 302.896 204.336,303.078 204.301,303.078 205.793 C 303.078 206.558,302.876 206.951,302.483 206.951 C 301.993 206.951,301.887 206.245,301.887 202.979 C 301.887 199.272,301.940 199.007,302.681 199.007 C 303.301 199.007,303.476 199.272,303.476 200.211 C 303.476 201.743,303.409 201.726,310.129 201.867 L 315.790 201.986 315.790 199.702 C 315.790 197.683,315.697 197.418,314.995 197.418 C 314.554 197.418,314.201 197.153,314.201 196.822 C 314.201 196.101,317.567 195.964,318.002 196.668 M228.182 200.335 C 228.740 201.066,229.196 201.839,229.196 202.054 C 229.196 204.038,232.622 204.479,236.510 202.994 C 238.057 202.403,237.296 201.610,235.254 201.684 C 233.147 201.761,230.797 201.080,229.321 199.963 C 227.527 198.606,226.995 198.779,228.182 200.335 M241.272 202.986 C 239.481 204.134,235.693 205.356,233.069 205.632 C 231.812 205.765,230.785 206.012,230.785 206.181 C 230.785 208.156,233.147 208.250,238.216 206.477 C 240.228 205.774,242.006 205.329,242.166 205.490 C 243.107 206.431,237.166 209.134,233.098 209.616 C 230.992 209.865,231.006 209.852,231.593 210.950 C 232.142 211.976,233.365 211.929,237.933 210.705 C 243.587 209.191,245.055 207.496,243.940 203.775 C 243.402 201.979,243.020 201.866,241.272 202.986 M82.616 209.434 C 82.623 210.288,82.612 210.288,88.002 209.483 C 94.686 208.486,97.678 210.311,97.707 215.405 C 97.731 219.452,96.176 220.692,89.635 221.846 L 84.806 222.698 84.931 223.961 C 85.210 226.787,83.550 225.535,83.050 222.542 C 82.804 221.068,82.503 219.369,82.382 218.769 C 82.197 217.853,82.297 217.676,82.997 217.676 C 83.611 217.676,83.897 217.998,84.075 218.888 C 84.286 219.942,84.453 220.073,85.356 219.895 C 85.928 219.783,88.081 219.392,90.142 219.026 C 94.656 218.225,95.730 217.429,95.730 214.883 C 95.730 212.648,94.067 210.924,91.910 210.924 C 88.249 210.924,82.976 212.204,83.043 213.077 C 83.154 214.517,83.034 214.896,82.464 214.896 C 81.489 214.896,80.598 208.360,81.529 208.037 C 82.117 207.833,82.607 208.463,82.616 209.434 M248.064 208.432 C 246.176 208.700,246.115 209.116,247.664 211.147 C 249.249 213.222,249.309 214.369,247.984 217.182 C 247.032 219.204,247.724 219.722,251.185 219.579 L 253.983 219.464 254.508 215.798 C 255.405 209.536,253.733 207.625,248.064 208.432 M243.720 211.292 C 243.108 211.968,243.083 212.314,243.499 214.318 C 243.866 216.083,243.861 216.966,243.480 218.329 C 242.859 220.545,243.264 221.046,247.491 223.298 C 249.174 224.195,251.649 225.907,252.991 227.103 C 256.344 230.089,258.125 228.721,256.803 224.174 C 256.061 221.622,256.975 222.032,250.844 221.500 L 245.680 221.053 245.554 219.734 C 245.484 219.009,245.793 217.333,246.240 216.009 C 247.297 212.880,245.436 209.396,243.720 211.292 M239.603 212.989 C 239.341 213.251,239.126 214.138,239.126 214.960 C 239.126 215.783,238.772 217.354,238.339 218.453 C 237.328 221.017,237.615 221.647,240.970 224.230 C 244.887 227.247,246.486 229.149,247.092 231.511 L 247.618 233.565 249.503 233.565 C 250.540 233.565,251.840 233.737,252.393 233.947 C 253.488 234.364,253.589 234.283,253.970 232.690 C 254.332 231.173,250.273 227.023,246.673 225.230 C 241.526 222.667,240.431 221.397,241.129 218.805 C 242.027 215.471,241.007 211.585,239.603 212.989 M229.759 213.646 C 225.637 215.309,224.158 219.278,226.825 221.521 C 228.430 222.872,230.132 225.455,230.704 227.408 C 231.530 230.229,232.641 231.676,233.589 231.169 C 235.319 230.243,234.809 227.995,231.880 223.632 C 229.858 220.621,229.702 218.383,231.300 215.303 C 232.634 212.732,232.467 212.553,229.759 213.646 M234.668 213.605 C 232.191 216.429,231.899 219.318,233.769 222.500 C 236.613 227.340,237.162 230.799,235.371 232.590 C 233.075 234.886,231.057 233.466,228.987 228.097 C 227.231 223.546,225.426 221.998,222.899 222.879 C 221.294 223.439,221.325 223.767,223.084 224.854 C 225.595 226.406,230.240 233.474,229.341 234.373 C 229.024 234.690,228.491 234.231,227.396 232.698 C 222.552 225.919,219.290 224.765,219.147 229.782 C 219.095 231.621,219.615 232.125,221.014 231.594 C 223.412 230.682,225.346 231.822,227.016 235.130 C 228.120 237.318,229.100 237.906,231.664 237.921 C 237.331 237.954,240.943 229.102,237.176 224.414 C 235.040 221.756,234.879 220.457,236.319 217.473 C 237.915 214.162,237.939 212.910,236.407 212.910 C 235.786 212.910,235.003 213.222,234.668 213.605 M302.207 216.687 C 302.280 217.167,304.666 219.258,308.281 222.010 C 314.279 226.578,315.154 227.672,313.005 227.919 C 306.752 228.638,298.709 230.167,298.709 230.637 C 298.709 230.936,298.352 231.182,297.915 231.182 C 297.011 231.182,296.993 231.099,297.481 229.196 C 297.677 228.431,297.951 227.302,298.089 226.687 C 298.355 225.500,299.702 225.278,299.702 226.421 C 299.702 226.986,299.918 227.028,302.020 226.879 C 302.905 226.815,304.270 223.542,304.270 221.483 C 304.270 220.439,301.860 219.014,301.421 219.799 C 301.028 220.502,299.901 220.709,299.901 220.079 C 299.901 217.080,301.832 214.240,302.207 216.687 M305.184 224.240 C 304.684 226.428,304.671 226.420,307.744 225.917 L 310.226 225.512 308.169 223.977 C 305.617 222.073,305.682 222.067,305.184 224.240 M319.960 225.461 C 319.960 226.334,319.714 226.681,318.892 226.970 C 316.818 227.700,315.638 225.137,317.459 223.861 C 318.658 223.021,319.960 223.854,319.960 225.461 M240.419 229.856 C 240.294 233.204,240.598 233.565,243.544 233.565 C 246.738 233.565,246.730 232.645,243.510 229.513 C 240.561 226.645,240.538 226.647,240.419 229.856 M318.093 229.672 C 318.752 230.331,318.691 231.779,317.979 232.369 C 317.184 233.030,315.505 232.561,315.198 231.593 C 314.638 229.829,316.809 228.388,318.093 229.672 M102.121 234.637 C 102.777 236.100,103.351 237.644,103.395 238.068 C 103.519 239.250,102.538 239.323,102.098 238.165 C 101.625 236.922,101.862 236.923,99.154 238.162 C 96.513 239.371,96.550 239.141,98.341 243.233 C 100.160 247.386,99.970 247.260,102.641 246.079 C 104.804 245.122,104.912 245.007,104.674 243.922 C 104.524 243.239,104.602 242.665,104.869 242.501 C 105.477 242.125,105.519 242.186,107.060 245.729 C 108.531 249.115,108.374 250.525,106.741 248.593 L 105.859 247.549 100.894 249.800 C 94.644 252.633,94.840 252.505,95.332 253.424 C 95.899 254.485,95.825 255.015,95.108 255.015 C 94.371 255.015,91.589 249.274,91.915 248.425 C 92.143 247.830,92.949 247.644,92.949 248.186 C 92.949 249.677,93.955 249.890,96.235 248.881 C 97.486 248.328,98.510 247.804,98.510 247.718 C 98.510 246.322,95.211 240.527,94.449 240.585 C 91.963 240.775,90.519 241.850,90.793 243.309 C 91.281 245.908,89.979 244.899,88.407 241.460 C 86.788 237.918,86.937 236.317,88.691 238.405 L 89.573 239.456 93.306 237.739 C 95.359 236.795,97.751 235.743,98.621 235.401 C 100.066 234.834,100.183 234.680,99.972 233.623 C 99.741 232.469,99.923 231.976,100.579 231.976 C 100.771 231.976,101.464 233.173,102.121 234.637 M221.152 233.200 C 220.620 233.509,220.457 234.130,220.457 235.839 L 220.457 238.073 221.356 237.228 C 221.851 236.764,222.923 236.104,223.739 235.763 C 225.474 235.038,225.539 234.794,224.304 233.634 C 223.312 232.703,222.256 232.557,221.152 233.200 M239.781 235.738 C 239.069 237.595,242.584 243.213,243.448 241.599 C 244.498 239.635,248.602 238.932,250.861 240.328 C 253.768 242.125,253.267 246.027,250.158 245.803 C 248.086 245.653,247.604 244.190,249.553 243.966 C 251.258 243.769,249.990 241.509,248.175 241.509 C 243.054 241.509,241.639 248.374,246.569 249.299 C 252.721 250.453,256.679 245.172,254.343 238.928 C 253.314 236.177,252.348 235.763,246.872 235.721 C 244.469 235.703,241.944 235.559,241.262 235.400 C 240.315 235.181,239.964 235.261,239.781 235.738 M222.810 238.301 C 221.171 239.939,221.892 242.701,223.957 242.701 C 224.721 242.701,227.607 239.887,227.607 239.141 C 227.607 237.051,224.588 236.522,222.810 238.301 M294.646 240.955 C 294.049 242.264,294.210 242.390,299.698 244.925 C 305.251 247.491,305.098 247.477,305.964 245.479 C 306.813 243.520,306.813 243.502,305.958 242.871 C 304.576 241.850,305.988 241.268,307.832 242.099 C 309.626 242.908,309.771 243.271,308.682 244.226 C 307.702 245.087,303.737 253.763,303.807 254.896 C 303.885 256.156,303.457 256.249,301.537 255.389 C 299.700 254.567,299.500 253.578,301.195 253.694 C 302.052 253.753,302.326 253.468,303.023 251.790 L 303.843 249.817 300.779 248.400 C 292.420 244.531,292.923 244.668,292.281 246.077 C 291.792 247.151,291.627 247.227,290.856 246.738 C 290.396 246.446,292.823 240.378,293.784 239.417 C 294.433 238.768,295.100 239.958,294.646 240.955 M290.435 260.836 C 291.870 262.135,290.737 264.945,288.779 264.945 C 287.688 264.945,286.395 263.560,286.395 262.392 C 286.395 260.401,288.892 259.439,290.435 260.836 M112.686 263.669 C 114.514 264.831,113.824 267.844,111.683 268.051 C 109.991 268.214,109.235 267.554,109.235 265.912 C 109.235 264.039,111.229 262.742,112.686 263.669 M275.487 268.943 C 275.631 269.175,275.462 269.680,275.113 270.066 C 274.214 271.061,274.300 271.370,275.905 272.911 C 279.764 276.616,283.716 281.289,283.324 281.681 C 282.949 282.056,274.046 281.284,270.452 280.565 C 268.817 280.238,269.026 280.681,272.068 283.988 L 274.786 286.943 275.874 286.230 C 278.842 284.285,277.607 287.077,274.354 289.666 C 272.611 291.053,271.327 290.684,272.683 289.185 C 273.534 288.244,273.762 288.595,268.941 283.416 C 265.292 279.495,265.262 279.477,264.042 280.437 C 262.184 281.899,261.900 280.460,263.700 278.702 L 265.214 277.223 270.542 277.838 C 273.472 278.176,276.450 278.530,277.160 278.625 C 278.899 278.858,278.829 278.701,275.671 275.293 C 273.048 272.462,272.897 272.363,272.183 273.009 C 271.313 273.796,270.668 273.870,270.270 273.226 C 270.100 272.951,270.926 271.924,272.332 270.660 C 274.826 268.417,275.078 268.280,275.487 268.943 M127.689 272.437 C 127.818 272.844,129.804 274.752,132.102 276.676 C 137.161 280.913,137.384 280.553,128.302 282.792 C 119.786 284.891,120.102 284.557,123.767 287.588 L 126.808 290.104 127.480 289.212 C 128.060 288.443,128.220 288.400,128.637 288.902 C 129.099 289.458,127.572 291.963,126.777 291.953 C 126.423 291.948,117.014 284.032,116.858 283.607 C 116.652 283.047,117.886 282.623,125.025 280.805 C 128.793 279.844,131.877 278.943,131.877 278.801 C 131.877 277.776,126.567 274.091,125.925 274.671 C 124.636 275.838,124.195 274.481,125.374 272.975 C 126.499 271.537,127.341 271.342,127.689 272.437 M148.157 288.527 C 148.163 289.268,147.770 289.280,146.100 288.591 C 145.573 288.374,145.167 288.813,144.216 290.632 C 143.550 291.906,142.556 293.751,142.009 294.731 C 140.418 297.576,140.763 299.737,142.991 300.890 C 145.753 302.318,147.534 301.075,150.462 295.671 L 152.431 292.038 151.489 291.608 C 150.517 291.165,150.238 290.208,150.952 289.766 C 151.175 289.628,152.250 290.065,153.341 290.736 C 154.432 291.407,155.479 291.956,155.667 291.956 C 156.343 291.956,156.863 292.965,156.494 293.559 C 156.187 294.051,156.000 294.059,155.278 293.612 C 154.187 292.935,154.086 293.044,151.587 297.575 C 148.604 302.984,146.122 304.209,141.967 302.322 C 137.707 300.387,137.368 297.230,140.774 291.204 L 143.107 287.076 142.197 286.389 C 141.601 285.940,141.375 285.472,141.542 285.036 C 141.901 284.100,148.149 287.398,148.157 288.527 M254.900 285.875 C 255.042 286.244,254.992 286.605,254.788 286.676 C 253.275 287.207,253.264 287.507,254.670 289.841 C 255.437 291.114,256.831 293.451,257.770 295.035 C 259.643 298.198,259.621 298.181,260.885 297.296 C 261.370 296.956,261.768 296.763,261.768 296.867 C 261.768 296.970,261.868 297.316,261.990 297.636 C 262.237 298.278,256.399 302.053,255.765 301.661 C 255.134 301.271,255.392 300.358,256.207 300.099 C 257.379 299.727,257.244 299.350,254.069 294.141 C 251.819 290.449,250.994 289.401,250.408 289.490 C 249.993 289.554,249.384 289.643,249.057 289.689 C 247.592 289.892,248.698 288.498,251.241 286.934 C 254.396 284.995,254.546 284.952,254.900 285.875 M238.729 294.340 C 238.729 294.777,238.497 295.134,238.213 295.134 C 237.115 295.134,236.778 295.973,237.355 297.269 C 237.659 297.952,238.646 300.441,239.548 302.801 C 240.450 305.161,241.305 307.034,241.448 306.965 C 241.591 306.895,242.651 306.485,243.804 306.053 C 245.763 305.319,245.884 305.197,245.659 304.173 C 245.476 303.340,245.568 303.078,246.045 303.078 C 246.907 303.078,247.921 305.500,247.319 306.122 C 246.949 306.504,239.732 309.425,237.493 310.100 C 236.354 310.443,236.251 309.063,237.378 308.549 C 238.612 307.987,238.608 307.962,236.203 301.731 C 234.066 296.195,234.344 296.598,233.010 297.105 C 232.164 297.426,231.900 297.385,231.714 296.900 C 231.401 296.083,231.472 296.034,234.820 294.746 C 238.392 293.372,238.729 293.337,238.729 294.340 M172.762 297.922 C 178.126 299.268,179.146 300.052,179.146 302.825 C 179.146 304.152,178.087 305.484,176.650 305.963 C 176.354 306.062,176.581 306.597,177.266 307.410 C 179.184 309.689,178.160 313.108,175.404 313.625 C 174.215 313.848,165.483 312.214,164.367 311.559 C 163.587 311.102,164.630 310.165,165.686 310.376 C 166.949 310.629,166.672 311.275,168.619 303.519 C 169.728 299.101,169.700 298.312,168.434 298.312 C 167.990 298.312,167.627 298.073,167.627 297.782 C 167.627 297.023,168.069 296.686,168.790 296.898 C 169.133 296.999,170.921 297.459,172.762 297.922 M172.013 301.006 C 171.353 303.383,171.475 304.667,172.361 304.667 C 172.780 304.667,173.398 304.773,173.733 304.902 C 174.568 305.222,176.365 303.353,176.365 302.165 C 176.365 299.733,172.642 298.742,172.013 301.006 M221.702 300.627 C 223.560 302.287,223.587 305.037,221.761 306.668 L 220.483 307.810 222.496 310.012 C 224.018 311.678,224.779 312.214,225.618 312.214 C 226.868 312.214,227.550 313.259,226.494 313.555 C 223.247 314.466,223.329 314.496,220.270 311.273 C 216.852 307.674,215.956 307.680,216.580 311.298 C 216.914 313.237,217.010 313.367,218.199 313.482 C 221.691 313.821,217.498 315.596,212.810 315.765 C 211.741 315.803,211.987 314.645,213.108 314.364 C 214.319 314.060,214.325 313.868,213.299 307.646 C 212.866 305.025,212.513 302.746,212.513 302.582 C 212.512 302.418,211.987 302.284,211.344 302.284 C 210.110 302.284,209.407 301.656,209.989 301.073 C 210.404 300.658,216.389 299.620,218.762 299.552 C 220.088 299.514,220.710 299.741,221.702 300.627 M195.691 301.238 C 197.622 301.340,199.094 301.244,199.338 300.999 C 200.473 299.865,201.334 301.567,200.743 303.774 C 200.415 304.997,199.404 304.922,199.404 303.674 C 199.404 302.717,199.311 302.681,196.822 302.681 L 194.240 302.681 194.240 305.263 L 194.240 307.845 195.985 307.845 C 197.170 307.845,197.804 307.654,197.959 307.249 C 198.357 306.213,199.938 306.491,199.655 307.547 C 199.523 308.039,199.413 309.022,199.410 309.732 C 199.405 310.756,199.240 311.023,198.610 311.023 C 198.080 311.023,197.815 310.758,197.815 310.228 C 197.815 309.555,197.550 309.434,196.079 309.434 L 194.343 309.434 194.073 311.822 C 193.725 314.899,193.809 314.995,196.846 314.995 C 199.139 314.995,199.404 314.913,199.404 314.201 C 199.404 313.759,199.669 313.406,200.000 313.406 C 200.431 313.406,200.596 313.849,200.596 315.005 L 200.596 316.604 195.134 316.363 C 192.130 316.230,189.449 316.052,189.176 315.968 C 188.229 315.675,188.685 314.995,189.828 314.995 C 191.379 314.995,191.460 314.650,191.460 308.011 L 191.460 302.284 190.533 302.284 C 189.422 302.284,189.062 301.988,189.329 301.293 C 189.457 300.960,190.045 300.829,190.990 300.922 C 191.795 301.002,193.910 301.144,195.691 301.238 M216.139 301.379 C 215.233 301.551,215.208 301.649,215.473 303.992 C 215.819 307.043,215.913 307.185,217.400 306.887 C 219.978 306.372,221.002 303.624,219.265 301.887 C 218.483 301.104,218.001 301.026,216.139 301.379 M170.428 307.370 C 169.282 311.626,169.377 311.799,172.876 311.812 C 175.808 311.823,176.270 307.907,173.486 306.643 C 171.154 305.584,170.892 305.647,170.428 307.370 " stroke="none" fill="#fff" fill-rule="evenodd"></path></g></svg>